<svg xmlns="http://www.w3.org/2000/svg" width="972" height="465.237" viewBox="0 0 972 465.237" xmlns:xlink="http://www.w3.org/1999/xlink" role="img" artist="Katerina Limpitsouni" source="https://undraw.co/">
  <g id="Group_40" data-name="Group 40" transform="translate(-370 -245.331)">
    <path id="Path_607-66" data-name="Path 607" d="M815.928,331.894c-22.428-48.517-66.319-89.906-119.342-96.652-14.019-1.784-28.657-1.068-41.664,4.457-17.074,7.253-29.658,21.893-42.376,35.4a510.973,510.973,0,0,1-89.8,75.655c-16.16,10.7-33.494,20.681-52.681,23.419-38.469,5.489-76.521-20.745-94.065-55.418-10.959-21.659-16.024-47.089-24.883-69.618-10.2-.02-22.36-.016-35.438.044-36.15.167-65.575.7-65.575.7s34.976-46.33,65.444-29.165c9.737,5.485,19.935,10.38,29.307,14.5-5.324-10.242-12.04-19.457-21.28-26.866-18.218-14.61-42.893-18.708-66.22-17.62-24.5,1.142-49.216,7.7-69.12,22.023-35.458,25.515-50.1,70.426-62.633,112.273l30.292,15.186c12.993-11.233,31.994-22.345,49.507-12.479C235.864,344.9,270.864,356.3,270.864,356.3s-29.186-.264-65.337-.1c-6.072.028-11.946.067-17.531.111l336.317,168.6c110.928,1.562,194.567-4.436,299.973,0,5.5.231,17.862-28.585,17.9-36.168C842.481,435.295,838.356,380.411,815.928,331.894ZM708.217,346.436c-36.15.167-65.576.7-65.576.7s34.976-46.33,65.444-29.165,65.468,28.562,65.468,28.562-29.186-.264-65.337-.1Z" transform="translate(392.424 159.15)" fill="#f2f2f2"/>
    <path id="Path_610-67" data-name="Path 610" d="M972,465.237H0v-2H971.026Z" transform="translate(370 245.331)" fill="#ccc"/>
    <g id="Group_39" data-name="Group 39" transform="translate(-122 -111.547)">
      <path id="Path_611-68" data-name="Path 611" d="M483.63,435.159s6.055-44.4,16.147-32.294,0,30.275,0,30.275L491.7,443.232l-8.073-6.055Z" transform="translate(346.629 85.42)" fill="#ffb9b9"/>
      <path id="Path_612-69" data-name="Path 612" d="M458.257,450.423s20.183-22.2,24.22-18.165,16.147,6.055,14.128,14.128S452.2,480.7,452.2,480.7Z" transform="translate(347.781 84.283)" fill="#6c63ff"/>
      <path id="Path_613-70" data-name="Path 613" d="M458.257,450.423s20.183-22.2,24.22-18.165,16.147,6.055,14.128,14.128S452.2,480.7,452.2,480.7Z" transform="translate(347.781 84.283)" opacity="0.1"/>
      <path id="Path_614-71" data-name="Path 614" d="M339.059,449.038v16.147s-2.018,36.33,10.092,34.312,6.055-32.294,6.055-32.294l-2.018-18.165Z" transform="translate(351.934 83.65)" fill="#ffb9b9"/>
      <path id="Path_615-72" data-name="Path 615" d="M341.739,570.557s-18.165,28.257-24.22,30.275-38.349,20.183-42.385,38.348l-28.257,36.33,14.128,18.165S325.592,625.053,343.757,619s36.33-36.33,36.33-36.33Z" transform="translate(355.309 79.195)" fill="#ffb9b9"/>
      <path id="Path_616-73" data-name="Path 616" d="M491.57,522.369s38.348,6.055,32.294,30.275-64.587,74.679-64.587,74.679l-2.018,12.11-22.2,4.037-10.092-10.092,2.018-6.055s24.22-22.2,26.238-30.275,24.22-40.367,34.312-42.385l-14.128-8.073Z" transform="translate(348.779 80.961)" fill="#ffb9b9"/>
      <path id="Path_617-74" data-name="Path 617" d="M252.24,679.113s8.073-12.11-4.037-10.092-20.183,4.037-20.183,12.11,10.092,64.587,22.2,60.55,2.018-22.2,2.018-22.2,6.055-16.147,10.092-18.165,4.037-12.11,0-12.11S250.222,683.15,252.24,679.113Z" transform="translate(356 75.593)" fill="#090814"/>
      <path id="Path_618-75" data-name="Path 618" d="M430.622,633.241s0-10.092-8.073,0-12.11,18.165-4.037,24.22,36.33,20.183,36.33,20.183,30.275,6.055,26.238-8.073c0,0-20.183-10.092-20.183-18.165s0-22.2-6.055-18.165S430.622,639.3,430.622,633.241Z" transform="translate(349.177 77.061)" fill="#090814"/>
      <path id="Path_619-76" data-name="Path 619" d="M389.378,476.275s-28.257,4.037-26.238,44.4c0,0-36.33,36.33-26.238,48.44s32.294,34.312,40.367,28.257S409.561,544.9,409.561,544.9s56.514,20.183,66.605,10.092,20.183-34.312,20.183-34.312L445.892,494.44Z" transform="translate(352.073 82.651)" fill="#090814"/>
      <circle id="Ellipse_94" data-name="Ellipse 94" cx="24.22" cy="24.22" r="24.22" transform="translate(795.946 395.441)" fill="#ffb9b9"/>
      <path id="Path_620-77" data-name="Path 620" d="M453.593,333.8s-14.128,22.2-18.165,24.22,28.257,22.2,28.257,22.2,0-26.238,10.092-32.294Z" transform="translate(352.262 88.838)" fill="#ffb9b9"/>
      <path id="Path_621-78" data-name="Path 621" d="M449.724,356.733s-32.294-10.092-38.349,6.055-20.183,46.422-18.165,66.605,6.055,16.147,0,22.2-10.092,2.018-8.073,10.092,4.037,8.073,2.018,12.11,24.22,18.165,46.422,20.183l22.2,2.018s0-36.33,4.037-44.4,12.11-24.22,12.11-30.275V405.3a61.275,61.275,0,0,0-8.073-30.4h0S451.743,356.733,449.724,356.733Z" transform="translate(350.259 87.148)" fill="#6c63ff"/>
      <path id="Path_622-79" data-name="Path 622" d="M423.59,365.232s-74.679,6.055-82.752,26.238-12.11,60.55-4.037,60.55,18.165,4.037,20.183,0,10.092-44.4,12.11-44.4,62.569-6.055,62.569-6.055S457.9,369.268,423.59,365.232Z" transform="translate(352.173 86.723)" fill="#6c63ff"/>
      <path id="Path_623-80" data-name="Path 623" d="M473.1,324.656s6.427-11.169,14.461-1.468,21.1-8.127,19.1-11.931-9.092.171-21.234-3.8-35.532-12.056-39.45,14.322,5.412,23.613,5.412,23.613,4.276-23.374,8.141-16.66l3.865,6.714,3.353.825Z" transform="translate(348.044 89)" fill="#090814"/>
    </g>
    <ellipse id="Ellipse_95" data-name="Ellipse 95" cx="26.397" cy="26.397" rx="26.397" ry="26.397" transform="translate(1048.189 298.323)" fill="#090814"/>
    <path id="Path_624-81" data-name="Path 624" d="M701.5,253.349s1.587,28.572-1.587,28.572,19.842,13.492,19.842,13.492l14.286-7.937v-9.524S715,275.571,722.933,254.936,701.5,253.349,701.5,253.349Z" transform="translate(360 90)" fill="#ffb9b9"/>
    <path id="Path_625-82" data-name="Path 625" d="M574.835,411.517l-2.381,23.81,7.937,2.381,6.349-6.349,2.381-19.842Z" transform="translate(420 245.331)" fill="#ffb9b9"/>
    <path id="Path_626-83" data-name="Path 626" d="M689.124,425.01l3.968,15.079,11.111,7.143,11.906-6.349L702.616,418.66Z" transform="translate(420 245.331)" fill="#ffb9b9"/>
    <ellipse id="Ellipse_96" data-name="Ellipse 96" cx="19.807" cy="19.807" rx="19.807" ry="19.807" transform="translate(1052.829 315.231)" fill="#ffb9b9"/>
    <path id="Path_627-84" data-name="Path 627" d="M695.154,328.747l-5.556-2.381s-9.524-5.556-10.318-16.667,7.937-25.4,7.937-25.4l12.7-3.968,14.92,12.143.16,19.6Z" transform="translate(360 90)" fill="#ffb9b9"/>
    <path id="Path_628-85" data-name="Path 628" d="M689.6,285.889l-3.175-1.587s-15.873-.794-17.461,18.254-7.143,50.795-7.143,50.795-12.7,22.223-11.905,46.033l-6.349,20.635s-8.73,30.159,1.587,30.159,9.524-32.54,9.524-32.54,19.048-46.033,20.635-53.969,15.08-45.239,11.111-55.557S689.6,285.889,689.6,285.889Z" transform="translate(360 90)" fill="#ffb9b9"/>
    <path id="Path_629-86" data-name="Path 629" d="M701.5,335.89v8.73s5.556,6.349,3.175,10.318-4.762,11.9-4.762,11.9L711.028,384.3l37.3,3.175,7.418-49.7Z" transform="translate(360 90)" fill="#ffb9b9"/>
    <path id="Path_630-87" data-name="Path 630" d="M736.425,280.333l6.349-3.175s13.492-9.524,24.6-11.111l34.128-23.016,22.223-53.176s-.794-28.572,5.556-25.4,5.556,27.778,5.556,27.778-11.905,49.207-22.223,62.7S765,290.651,765,290.651s-10.318,11.9-9.524,17.461S736.425,280.333,736.425,280.333Z" transform="translate(360 90)" fill="#ffb9b9"/>
    <path id="Path_631-88" data-name="Path 631" d="M707.059,366.843s-8.73-5.556-14.286,3.968-15.873,11.9-22.223,40.477-21.429,73.811-25.4,76.986-20.635,36.509-11.111,83.335h15.873l13.492-67.462s43.652-53.969,46.826-76.192l14.286,83.335s.794,31.747,12.7,46.826l12.7,30.159,16.667-7.937-19.048-76.192s9.524-76.986,3.175-98.415l-.912-28.094S723.726,378.748,707.059,366.843Z" transform="translate(360 90)" fill="#090814"/>
    <path id="Path_632-89" data-name="Path 632" d="M640.391,586.69h-9.524c-1.587,0-14.286,10.318-8.73,15.873s14.286,15.873,14.286,15.873,30.953,3.937,31.747-1.619-13.492-17.429-13.492-17.429l-3.968-12.7S642.772,577.959,640.391,586.69Z" transform="translate(360 90)" fill="#090814"/>
    <path id="Path_633-90" data-name="Path 633" d="M766.584,594.626s-13.492-.794-15.873-1.587-7.143,20.635,0,22.223,36.509,3.968,36.509,3.968,23.016-.794,21.429-7.143-32.54-19.048-32.54-19.048S772.14,585.1,766.584,594.626Z" transform="translate(360 90)" fill="#090814"/>
    <path id="Path_634-91" data-name="Path 634" d="M703.885,279.54l-3.968-2.381-4.762,3.968s14.286,9.524,11.111,18.254S689.6,326.366,689.6,326.366,701.5,339.859,701.5,344.621c0,0,30.953-11.111,53.969,0,0,0,0-15.873,3.175-19.048s4.762-14.286-3.175-23.81a174.008,174.008,0,0,1-15.08-22.223l-7.937-4.762-4.088,1.3s8.056,9.021.12,9.815S707.853,284.3,703.885,279.54Z" transform="translate(360 90)" fill="#6c63ff"/>
    <path id="Path_635-92" data-name="Path 635" d="M731.787,178.347a14.429,14.429,0,0,1-8.95,4.688c-5.967.852-1.279,10.228-1.279,10.228a5.388,5.388,0,0,1,1.7-6.393C726.672,183.887,731.787,182.183,731.787,178.347Z" transform="translate(362.092 101.368)" fill="#090814"/>
    <ellipse id="Ellipse_97" data-name="Ellipse 97" cx="7.357" cy="7.357" rx="7.357" ry="7.357" transform="translate(1075.018 289.236)" fill="#090814"/>
    <path id="Path_636-93" data-name="Path 636" d="M726.994,204.73c-5.683-2.969-15.46-5.3-20.655-5.136l1.314-5.024c4.6,3.124,14.324,5.5,20.655,5.136Z" transform="translate(363.97 99.106)" fill="#6c63ff"/>
    <path id="Path_637-94" data-name="Path 637" d="M710.87,206.89S701.914,218.4,684,220.963s-3.838,30.706-3.838,30.706-5.118-10.235,5.118-19.191S710.87,218.4,710.87,206.89Z" transform="translate(368.353 97.388)" fill="#090814"/>
    <path id="Path_638-95" data-name="Path 638" d="M717.41,206.1s5.118,17.912,12.794,20.47,3.838,29.426-8.956,31.985c0,0,10.875-14.713,4.478-26.228S715.491,211.853,717.41,206.1Z" transform="translate(362.495 97.499)" fill="#090814"/>
    <rect id="Rectangle_202" data-name="Rectangle 202" width="54.763" height="6.349" transform="translate(1162.696 261.204)" fill="#090814"/>
    <ellipse id="Ellipse_98" data-name="Ellipse 98" cx="4.762" cy="19.048" rx="4.762" ry="19.048" transform="translate(1212.697 245.331)" fill="#090814"/>
    <ellipse id="Ellipse_99" data-name="Ellipse 99" cx="4.762" cy="19.048" rx="4.762" ry="19.048" transform="translate(1157.935 245.331)" fill="#090814"/>
    <rect id="Rectangle_203" data-name="Rectangle 203" width="54.763" height="6.349" transform="translate(1190.475 688.213)" fill="#090814"/>
    <ellipse id="Ellipse_100" data-name="Ellipse 100" cx="4.762" cy="19.048" rx="4.762" ry="19.048" transform="translate(1240.476 672.34)" fill="#090814"/>
    <ellipse id="Ellipse_101" data-name="Ellipse 101" cx="4.762" cy="19.048" rx="4.762" ry="19.048" transform="translate(1185.713 672.34)" fill="#090814"/>
  </g>
</svg>