<svg width="423" height="342" viewBox="0 0 423 342" fill="none" xmlns="http://www.w3.org/2000/svg">
<g clip-path="url(#clip0_88_2297)">
<path d="M206.23 251.711C216.299 254.662 222.841 261.936 220.84 267.957C218.84 273.978 209.057 276.464 198.984 273.51C194.943 272.382 191.249 270.361 188.21 267.617L145.713 254.605L152.637 235.998L193.796 250.801C197.959 250.167 202.222 250.479 206.23 251.711Z" fill="#FFB6B6"/>
<path d="M115.19 115.183C105.057 114.055 95.7266 120.49 93.8389 129.912C87.1059 163.517 72.8057 236.188 74.6889 237.957C77.1406 240.261 168.671 265.6 168.671 265.6L179.295 244.1L118.82 216.457L132.083 136.081C133.766 125.877 126.103 116.397 115.19 115.183Z" fill="#E6E6E6"/>
<path d="M225.461 286.666C215.635 290.272 205.691 288.432 203.25 282.557C200.809 276.681 206.794 268.997 216.624 265.391C220.529 263.9 224.758 263.31 228.956 263.669L270.791 248.885L277.756 267.479L235.775 280.079C232.946 283.017 229.409 285.276 225.461 286.666Z" fill="#A0616A"/>
<path d="M285.791 127.078C295.821 125.314 305.59 131.145 308.147 140.426C317.269 173.53 336.734 245.134 334.982 247.018C332.7 249.471 243.19 280.532 243.19 280.532L231.052 259.752L289.413 228.353L270.431 148.996C268.022 138.921 274.989 128.979 285.791 127.078Z" fill="#E6E6E6"/>
<path d="M108.012 120.01L112.997 90.7398L79.3512 77.8608L74.3667 122.352L108.012 120.01Z" fill="#FFB6B6"/>
<path d="M304.516 124.617L299.531 95.3469L333.177 82.4679L338.161 126.959L304.516 124.617Z" fill="#A0616A"/>
<path d="M99.5094 100.149C118.458 100.149 133.82 85.7163 133.82 67.9125C133.82 50.1086 118.458 35.6758 99.5094 35.6758C80.5604 35.6758 65.1992 50.1086 65.1992 67.9125C65.1992 85.7163 80.5604 100.149 99.5094 100.149Z" fill="#FFB6B6"/>
<path d="M96.7712 24.5725C97.764 25.117 99.0938 24.2932 99.4122 23.2553C99.7305 22.2174 99.3597 21.1155 98.9919 20.0922L97.1407 14.9405C95.8278 11.2868 94.4343 7.50545 91.5909 4.72452C87.2991 0.527166 80.4785 -0.540626 74.3386 0.232952C66.4538 1.22637 58.6742 5.2379 55.0079 11.8715C51.3417 18.5051 52.9026 27.7613 59.5272 31.9C50.0857 42.0676 46.7945 53.399 47.3141 66.8836C47.8338 80.3682 63.4739 92.7785 73.6734 102.278C75.9511 100.981 78.0218 94.9009 76.7693 92.6924C75.5168 90.4838 77.3114 87.925 75.7601 85.8907C74.2089 83.8563 72.9111 87.0956 74.4794 85.0728C75.469 83.7964 71.6066 80.8599 73.0776 80.096C80.1924 76.4008 82.5587 68.0684 87.0273 61.6877C92.4173 53.9913 101.642 48.7793 111.404 47.9146C116.782 47.4383 122.462 48.301 126.87 51.2344C131.278 54.1677 134.132 59.4097 133.11 64.3931C135.757 61.8677 137.075 58.1666 136.578 54.6529C136.081 51.1392 133.78 47.89 130.522 46.1019C132.503 39.9479 130.806 32.869 126.209 28.1069C121.612 23.3447 102.964 24.1558 96.2521 25.4091" fill="#2F2E41"/>
<path d="M95.7291 48.1014C86.84 49.003 80.4218 56.2376 75.0021 62.9188C71.8784 66.7696 68.6063 71.0222 68.6847 75.8635C68.764 80.7581 72.2471 84.9563 73.9117 89.595C76.6325 97.1769 73.9808 106.198 67.5039 111.393C73.9038 112.534 80.8222 108.025 81.927 101.994C83.2131 94.9719 77.548 88.1949 78.219 81.098C78.8101 74.8455 84.0542 70.0335 88.5125 65.3585C92.9708 60.6835 97.158 54.48 95.1069 48.506" fill="#2F2E41"/>
<path d="M111.899 115.102L73.0545 105.12L33.0101 120.477L15.8481 247.939L113.916 251.01V230.451C113.916 230.451 131.078 210.315 127.809 181.137L124.54 151.958L111.899 115.102Z" fill="#E6E6E6"/>
<path d="M129.852 166.932L53.0324 163.092L32.1929 218.761C32.1929 218.761 6.45007 252.162 2.3639 276.733C-1.72227 301.304 0.729431 335.857 0.729431 335.857H123.713L113.916 230.451C113.916 230.451 136.789 183.824 134.138 175.762C131.487 167.699 129.852 166.932 129.852 166.932Z" fill="#3F3D56"/>
<path d="M71.0117 105.504H52.2153V170.771H71.0117V105.504Z" fill="#3F3D56"/>
<path d="M129.035 120.093H110.239V173.842H129.035V120.093Z" fill="#3F3D56"/>
<path d="M298.994 121.245L337.838 111.263L377.883 126.62L395.045 254.082L296.977 257.153V236.594C296.977 236.594 286.945 215.575 296.568 187.663C305.966 160.405 286.353 158.101 286.353 158.101L298.994 121.245Z" fill="#E6E6E6"/>
<path d="M281.041 173.074L357.861 169.235L378.7 224.904C378.7 224.904 391.367 262.912 395.453 287.483C399.539 312.054 410.163 342 410.163 342H287.179L283.492 240.645L281.041 173.074Z" fill="#3F3D56"/>
<path d="M358.678 111.647H339.881V176.913H358.678V111.647Z" fill="#3F3D56"/>
<path d="M300.654 126.236H281.858V179.985H300.654V126.236Z" fill="#3F3D56"/>
<path d="M312.114 104.629C335.847 104.629 355.086 86.5525 355.086 64.2538C355.086 41.9552 335.847 23.8785 312.114 23.8785C288.381 23.8785 269.142 41.9552 269.142 64.2538C269.142 86.5525 288.381 104.629 312.114 104.629Z" fill="#A0616A"/>
<path d="M354.382 86.1565C354.382 86.1565 333.592 62.7157 325.276 64.6691C316.959 66.6225 322.157 69.5526 322.157 69.5526L301.367 48.0653C301.367 48.0653 284.734 42.2051 269.141 60.7623C269.141 60.7623 259.786 45.1352 269.141 36.3449C278.497 27.5546 281.616 28.5313 283.695 23.6478C285.774 18.7643 300.327 14.8575 300.327 14.8575C300.327 14.8575 299.492 7.82839 304.068 11.343C308.643 14.8575 320.07 14.8575 320.07 14.8575C320.07 14.8575 320.135 10.9507 324.785 14.8575C329.434 18.7643 334.631 16.8109 334.631 16.8109C334.631 16.8109 334.631 23.5709 338.27 23.6094C341.908 23.6478 348.145 18.7643 349.185 22.6711C350.224 26.5779 357.501 28.5313 358.54 40.2517C359.58 51.972 354.382 86.1565 354.382 86.1565Z" fill="#2F2E41"/>
<path d="M195.007 146.419L228.277 205.514L223.717 207.781L190.446 148.685C189.963 147.828 190.312 146.763 191.225 146.309L192.478 145.687C193.391 145.233 194.524 145.561 195.007 146.419Z" fill="#3F3D56"/>
<path d="M250.436 227.847C241.971 225.797 233.116 229.428 228.868 236.606C223.55 245.595 217.474 252.968 219.508 235.394C221.748 216.047 209.668 200.42 219.162 195.702C228.655 190.983 238.458 205.323 253.888 218.307C268.189 230.34 259.942 230.15 250.436 227.847Z" fill="#3F3D56"/>
<path d="M201.442 158.374C211.037 154.257 221.075 155.572 223.863 161.31C226.65 167.048 221.131 175.035 211.531 179.151C207.721 180.845 203.534 181.657 199.321 181.519L158.431 198.478L150.37 180.279L191.536 165.493C194.186 162.411 197.582 159.969 201.442 158.374Z" fill="#FFB6B6"/>
<path d="M36.6639 113.792C28.3169 119.306 25.9397 129.949 31.2266 138.149C50.084 167.396 91.0554 230.481 93.7147 230.618C97.1768 230.796 183.338 192.269 183.338 192.269L175.977 169.596L111.306 186.934L64.0885 118.761C58.0942 110.107 45.6538 107.852 36.6639 113.792Z" fill="#E6E6E6"/>
<path d="M205.53 249.13L316.056 194.198L329.624 218.297C341.328 239.085 332.867 264.89 310.741 275.887L280.392 290.97C258.267 301.967 230.802 294.017 219.098 273.229L205.53 249.13Z" fill="#6C63FF"/>
<path d="M299.171 286.055C289.577 290.172 279.538 288.859 276.75 283.121C273.962 277.384 279.48 269.396 289.079 265.278C292.889 263.584 297.075 262.772 301.288 262.909L342.176 245.945L350.24 264.142L309.076 278.934C306.427 282.017 303.031 284.458 299.171 286.055Z" fill="#A0616A"/>
<path d="M382.33 123.629C392.463 122.501 401.793 128.936 403.68 138.358C410.413 171.964 424.714 244.634 422.831 246.403C420.379 248.707 328.849 274.046 328.849 274.046L318.225 252.546L378.7 224.904L365.437 144.527C363.753 134.323 371.416 124.844 382.33 123.629Z" fill="#E6E6E6"/>
</g>
<defs>
<clipPath id="clip0_88_2297">
<rect width="423" height="342" fill="white"/>
</clipPath>
</defs>
</svg>
