<svg width="400" height="400" viewBox="0 0 400 400" fill="none" xmlns="http://www.w3.org/2000/svg">
<path d="M390.551 57.423L296.882 57.165C294.372 57.1617 291.962 58.1303 290.182 59.8586C288.401 61.5869 287.395 63.9339 287.384 66.385L287.047 187.485C287.041 189.934 288.032 192.285 289.801 194.021C291.57 195.757 293.972 196.737 296.48 196.745L348.441 196.892L390.164 197.003C392.674 197.007 395.083 196.038 396.862 194.309C398.64 192.579 399.642 190.231 399.648 187.78L399.673 180.621L400 66.6965C400.006 64.2434 399.013 61.8884 397.241 60.1494C395.468 58.4105 393.061 57.4298 390.549 57.423H390.551Z" fill="#E6E6E6"/>
<path d="M383.947 64.6561L303.446 64.4351C301.096 64.4323 298.84 65.3393 297.173 66.9575C295.506 68.5758 294.564 70.7731 294.554 73.0681L294.327 150.925C294.312 161.15 298.45 170.963 305.836 178.212C313.221 185.461 323.25 189.555 333.722 189.595L349.017 189.632L383.595 189.732C385.947 189.737 388.205 188.83 389.873 187.211C391.54 185.591 392.481 183.392 392.488 181.095L392.513 173.26L392.79 73.3356C392.795 71.0399 391.866 68.8362 390.208 67.2083C388.55 65.5805 386.299 64.6616 383.947 64.6536V64.6561Z" fill="white"/>
<path d="M376.07 46.5074L282.401 46.2494C279.89 46.2461 277.481 47.2147 275.7 48.943C273.92 50.6713 272.914 53.0182 272.903 55.4694L272.565 176.569C272.56 179.018 273.55 181.369 275.319 183.105C277.088 184.841 279.491 185.821 281.999 185.829L333.96 185.976L375.682 186.087C378.192 186.091 380.601 185.122 382.38 183.393C384.159 181.663 385.161 179.315 385.166 176.864L385.191 169.705L385.518 55.7809C385.524 53.3277 384.532 50.9728 382.759 49.2338C380.987 47.4948 378.58 46.5141 376.067 46.5074H376.07Z" fill="#E6E6E6"/>
<path d="M369.466 53.7405L288.965 53.5195C286.614 53.5167 284.358 54.4238 282.691 56.042C281.025 57.6602 280.083 59.8576 280.072 62.1525L279.846 140.01C279.83 150.234 283.969 160.047 291.354 167.296C298.739 174.546 308.768 178.639 319.241 178.68L334.536 178.717L369.113 178.817C371.466 178.822 373.724 177.915 375.391 176.295C377.059 174.676 378 172.476 378.007 170.18L378.032 162.345L378.308 62.42C378.313 60.1244 377.385 57.9207 375.727 56.2928C374.069 54.665 371.817 53.7461 369.466 53.738V53.7405Z" fill="white"/>
<path d="M361.73 32.5074L268.061 32.2494C265.55 32.2461 263.141 33.2147 261.36 34.943C259.58 36.6713 258.574 39.0182 258.563 41.4694L258.226 162.569C258.22 165.018 259.211 167.369 260.98 169.105C262.748 170.841 265.151 171.821 267.659 171.829L319.62 171.976L361.342 172.087C363.852 172.091 366.262 171.122 368.04 169.393C369.819 167.663 370.821 165.315 370.826 162.864L370.851 155.705L371.179 41.7809C371.184 39.3277 370.192 36.9728 368.42 35.2338C366.647 33.4948 364.24 32.5141 361.727 32.5074H361.73Z" fill="#E6E6E6"/>
<path d="M355.126 39.7405L274.625 39.5195C272.274 39.5167 270.019 40.4238 268.352 42.042C266.685 43.6602 265.743 45.8576 265.733 48.1525L265.506 126.01C265.491 136.234 269.629 146.047 277.014 153.296C284.4 160.546 294.428 164.639 304.901 164.68L320.196 164.717L354.774 164.817C357.126 164.822 359.384 163.915 361.052 162.295C362.719 160.676 363.66 158.476 363.667 156.18L363.692 148.345L363.969 48.42C363.974 46.1244 363.045 43.9207 361.387 42.2928C359.729 40.665 357.477 39.7461 355.126 39.738V39.7405Z" fill="white"/>
<path d="M346.082 92.9386H283.317C282.317 92.9386 281.359 93.3261 280.653 94.0159C279.946 94.7056 279.549 95.6411 279.549 96.6166C279.549 97.5921 279.946 98.5276 280.653 99.2173C281.359 99.9071 282.317 100.295 283.317 100.295H346.082C346.577 100.295 347.067 100.199 347.524 100.015C347.981 99.8298 348.396 99.5589 348.746 99.2173C349.096 98.8758 349.373 98.4703 349.563 98.0241C349.752 97.5779 349.85 97.0996 349.85 96.6166C349.85 96.1336 349.752 95.6553 349.563 95.2091C349.373 94.7629 349.096 94.3574 348.746 94.0159C348.396 93.6743 347.981 93.4034 347.524 93.2186C347.067 93.0337 346.577 92.9386 346.082 92.9386Z" fill="#00931B"/>
<path d="M297.115 72.7745H283.317C282.317 72.7745 281.359 73.162 280.653 73.8518C279.946 74.5416 279.549 75.4771 279.549 76.4525C279.549 77.428 279.946 78.3635 280.653 79.0533C281.359 79.743 282.317 80.1305 283.317 80.1305H297.115C298.114 80.1305 299.072 79.743 299.779 79.0533C300.485 78.3635 300.882 77.428 300.882 76.4525C300.882 75.4771 300.485 74.5416 299.779 73.8518C299.072 73.162 298.114 72.7745 297.115 72.7745Z" fill="#00931B"/>
<path d="M346.082 125.272H283.317C282.317 125.272 281.359 125.66 280.653 126.35C279.946 127.039 279.549 127.975 279.549 128.95C279.549 129.926 279.946 130.861 280.653 131.551C281.359 132.241 282.317 132.628 283.317 132.628H346.082C347.081 132.628 348.04 132.241 348.746 131.551C349.453 130.861 349.85 129.926 349.85 128.95C349.85 127.975 349.453 127.039 348.746 126.35C348.04 125.66 347.081 125.272 346.082 125.272Z" fill="#00931B"/>
<path d="M346.083 109.112H283.318C282.82 109.107 282.326 109.197 281.865 109.379C281.403 109.561 280.984 109.831 280.63 110.172C280.276 110.514 279.995 110.921 279.803 111.369C279.611 111.817 279.513 112.298 279.513 112.784C279.513 113.27 279.611 113.751 279.803 114.199C279.995 114.647 280.276 115.054 280.63 115.396C280.984 115.737 281.403 116.007 281.865 116.189C282.326 116.371 282.82 116.461 283.318 116.456H346.083C347.073 116.444 348.018 116.053 348.714 115.365C349.41 114.678 349.8 113.75 349.8 112.784C349.8 111.817 349.41 110.89 348.714 110.203C348.018 109.515 347.073 109.123 346.083 109.112Z" fill="#00931B"/>
<path d="M333.886 85.7795C329.479 85.7794 325.17 84.5033 321.506 82.1127C317.841 79.722 314.985 76.3242 313.299 72.3488C311.612 68.3734 311.171 63.999 312.031 59.7788C312.891 55.5586 315.013 51.6821 318.13 48.6395C321.246 45.5969 325.217 43.5249 329.539 42.6855C333.862 41.846 338.342 42.2769 342.414 43.9236C346.486 45.5703 349.966 48.3588 352.415 51.9365C354.863 55.5143 356.17 59.7206 356.17 64.0235C356.17 66.8805 355.594 69.7097 354.474 72.3492C353.354 74.9888 351.713 77.3872 349.643 79.4075C347.574 81.4277 345.117 83.0302 342.414 84.1235C339.71 85.2168 336.812 85.7795 333.886 85.7795ZM333.886 43.7795C329.785 43.7795 325.776 44.9668 322.366 47.1913C318.956 49.4158 316.298 52.5775 314.729 56.2767C313.159 59.9759 312.749 64.0464 313.549 67.9735C314.349 71.9005 316.324 75.5077 319.224 78.339C322.123 81.1702 325.818 83.0983 329.841 83.8795C333.863 84.6606 338.032 84.2597 341.821 82.7274C345.61 81.1952 348.849 78.6004 351.127 75.2712C353.405 71.942 354.622 68.028 354.622 64.024C354.622 61.3654 354.085 58.7328 353.043 56.2766C352.001 53.8203 350.474 51.5885 348.548 49.7086C346.623 47.8287 344.337 46.3375 341.821 45.32C339.305 44.3026 336.609 43.7795 333.886 43.7795Z" fill="#00931B"/>
<path d="M343.245 72.4501C341.705 64.6915 338.499 57.3395 333.838 50.8786C333.733 50.7114 333.585 50.5733 333.41 50.4776C333.234 50.3818 333.036 50.3315 332.835 50.3315C332.634 50.3315 332.436 50.3818 332.261 50.4776C332.085 50.5733 331.938 50.7114 331.832 50.8786C327.773 57.8107 325.178 65.4671 324.201 73.3951C324.021 74.8406 326.345 74.8276 326.524 73.3951C326.851 70.8257 327.36 68.2816 328.048 65.7811C328.137 65.764 328.224 65.738 328.307 65.7036C331.396 64.1895 334.885 63.6346 338.307 64.1136C338.336 64.1181 338.365 64.1136 338.395 64.1136C339.525 67.0147 340.399 70.0049 341.007 73.0516C341.288 74.4846 343.529 73.8786 343.245 72.4501ZM328.883 63.0001C329.95 59.7709 331.307 56.6403 332.939 53.6451C334.667 56.2226 336.168 58.9389 337.425 61.7646C334.519 61.5511 331.601 61.9732 328.883 63.0001Z" fill="#00931B"/>
<path d="M29.0904 128.391L0.851459 222.637C-0.0277724 225.571 -0.22919 228.659 0.261714 231.679C0.752618 234.698 1.92364 237.574 3.69031 240.098C5.45699 242.622 7.7753 244.732 10.4781 246.276C13.181 247.819 16.201 248.758 19.3204 249.025L50.1354 251.658L29.0904 128.391Z" fill="#00931B"/>
<path opacity="0.1" d="M29.0904 128.391L0.851459 222.637C-0.0277724 225.571 -0.22919 228.659 0.261714 231.679C0.752618 234.698 1.92364 237.574 3.69031 240.098C5.45699 242.622 7.7753 244.732 10.4781 246.276C13.181 247.819 16.201 248.758 19.3204 249.025L50.1354 251.658L29.0904 128.391Z" fill="black"/>
<path d="M251.34 86.0144V76.2694C251.34 76.2694 318.65 72.0274 325.928 74.3249C325.928 74.3249 328.912 79.2594 313.781 80.0489C313.778 80.0489 266.685 86.9704 251.34 86.0144Z" fill="#090814"/>
<path d="M285.405 111.004L247.631 171.996L229.846 149.996L264.604 96.8649C263.369 90.6839 264.865 83.5089 269.283 77.3149C277.016 66.4739 290.733 62.7499 299.922 68.9964C309.112 75.2429 310.297 89.0964 302.562 99.9379C298.143 106.133 291.769 109.992 285.403 111.006L285.405 111.004Z" fill="#ED9DA0"/>
<path d="M49.907 258.857L45.3706 273.92L45.5242 289.192C45.5242 289.192 15.689 324.227 26.6778 400L166.471 398.288L149.818 276.353L49.907 258.857Z" fill="#090814"/>
<path d="M65.6473 50.1363C65.6488 42.9822 67.6811 35.9685 71.5187 29.8739C75.3562 23.7794 80.8489 18.8425 87.3867 15.6115C93.9245 12.3805 101.252 10.9818 108.554 11.5707C115.857 12.1596 122.85 14.7131 128.756 18.9477C134.662 23.1822 139.251 28.932 142.012 35.5588C144.773 42.1855 145.599 49.4297 144.398 56.4871C143.198 63.5444 140.017 70.1388 135.209 75.5378C130.401 80.9368 124.155 84.9293 117.164 87.0718L111.253 91.7218L121.863 127.981L109.499 136.52L70.4363 104.733C70.4363 104.733 78.8767 94.2378 83.4024 82.3988C77.9421 78.873 73.4623 74.0806 70.3638 68.4504C67.2653 62.8201 65.6448 56.5278 65.6473 50.1363Z" fill="#ED9DA0"/>
<path d="M256.745 109.069C242.748 108.86 216.875 152.713 216.875 152.713L195.621 145.375L151.905 130.266L118.406 116.806L118.553 117.795C118.421 117.485 118.278 117.171 118.12 116.855C114.598 109.77 104.368 101.434 75.3236 103.087L61.6497 113.626L59.7876 115.07C53.9205 114.762 48.0523 115.654 42.559 117.689C36.3381 120.131 30.1178 124.686 27.1751 133.2C25.651 137.591 25.651 146.672 26.5651 158.208C29.8735 199.976 45.2938 288.77 45.2938 288.77L142.641 276.189L149.823 276.353C149.823 276.353 150.677 266.782 151.439 254.247C151.912 246.894 152.339 238.543 152.583 230.505C152.751 224.61 152.797 218.894 152.69 213.863C152.675 213.55 152.675 213.237 152.66 212.924C152.37 203.74 151.424 197.082 149.397 196.357C149.397 196.357 155.692 196.193 164.781 195.865C186.736 195.062 225.005 193.26 230.463 190.358C238.177 186.264 278.627 131.318 278.627 131.318C278.627 131.318 270.76 109.287 256.748 109.064L256.745 109.069Z" fill="#00931B"/>
<path d="M146.103 52.993C143.108 38.6895 141.669 31.362 130.787 21.243C128.203 21.5995 131.469 34.6795 117.229 52.8985C96.5274 79.383 98.5902 55.0985 92.4687 63.258C91.1372 65.029 90.853 71.4195 91.2908 73.6175C93.0162 82.3045 103.229 73.822 92.4687 103.546C90.8683 105.857 88.9806 105.296 86.5741 105.273C86.3877 105.273 87.6091 105.043 83.0373 104.123C80.8551 103.683 77.8013 103.164 74.1395 102.565C31.606 95.5695 16.5873 43.172 49.463 15.91C56.9432 9.70748 64.2841 5.00648 70.655 2.82848C89.8507 -3.73152 133.589 0.53248 141.986 21.8215C145.941 31.7295 147.353 42.4317 146.101 52.995L146.103 52.993Z" fill="#010102"/>
<path d="M58.5026 137.102C75.2565 137.102 88.8382 123.842 88.8382 107.485C88.8382 91.1275 75.2565 77.8676 58.5026 77.8676C41.7488 77.8676 28.1671 91.1275 28.1671 107.485C28.1671 123.842 41.7488 137.102 58.5026 137.102Z" fill="#010102"/>
</svg>
