<svg width="515" height="409" viewBox="0 0 515 409" fill="none" xmlns="http://www.w3.org/2000/svg">
<g clip-path="url(#clip0_92_2720)">
<path d="M0 371.295C0.00437739 371.407 0.0279655 371.516 0.0694123 371.618C0.110859 371.719 0.16935 371.81 0.241532 371.885C0.313715 371.96 0.39817 372.019 0.490057 372.057C0.581944 372.094 0.679457 372.111 0.777006 372.106H514.223C514.411 372.106 514.591 372.02 514.724 371.868C514.857 371.716 514.931 371.51 514.931 371.295C514.931 371.08 514.857 370.873 514.724 370.721C514.591 370.569 514.411 370.484 514.223 370.484H0.777006C0.679457 370.479 0.581944 370.495 0.490057 370.533C0.39817 370.571 0.313715 370.629 0.241532 370.705C0.16935 370.78 0.110859 370.871 0.0694123 370.972C0.0279655 371.074 0.00437739 371.183 0 371.295Z" fill="#E6E6E6"/>
<path d="M256.8 141.526L261.628 107.007L229.075 91.8193L224.252 144.282L256.8 141.526Z" fill="#ED9DA0"/>
<path d="M248.574 118.101C266.907 118.101 281.769 101.079 281.769 80.0826C281.769 59.0858 266.907 42.0645 248.574 42.0645C230.241 42.0645 215.379 59.0858 215.379 80.0826C215.379 101.079 230.241 118.101 248.574 118.101Z" fill="#ED9DA0"/>
<path d="M245.929 28.9747C246.894 29.6147 248.175 28.6481 248.484 27.4227C248.793 26.1973 248.431 24.8975 248.08 23.692C247.486 21.6704 246.885 19.6414 246.291 17.6198C245.019 13.311 243.67 8.85047 240.924 5.57102C236.769 0.622352 230.172 -0.636933 224.234 0.275091C216.608 1.4459 209.078 6.17338 205.536 13.9982C201.994 21.823 203.497 32.7385 209.913 37.6194C200.778 49.6069 197.592 62.9761 198.097 78.8779C198.603 94.7797 213.726 109.416 223.598 120.623C225.802 119.092 227.806 111.923 226.593 109.316C225.38 106.709 227.116 103.694 225.618 101.297C224.121 98.9011 222.86 102.72 224.382 100.331C225.339 98.8267 221.601 95.3614 223.027 94.4627C229.91 90.1061 232.198 80.2766 236.525 72.7548C239.17 68.2254 242.655 64.421 246.732 61.6133C250.809 58.8057 255.377 57.0641 260.11 56.5131C265.311 55.9483 270.808 56.9695 275.07 60.4273C279.331 63.8852 282.095 70.0629 281.109 75.9435C282.394 74.4478 283.365 72.6354 283.945 70.6448C284.526 68.6543 284.702 66.538 284.46 64.4577C284.218 62.3773 283.564 60.3878 282.548 58.641C281.532 56.8943 280.181 55.4364 278.598 54.3786C279.524 50.7261 279.627 46.8646 278.897 43.1543C278.168 39.444 276.629 36.0058 274.426 33.1603C269.98 27.5444 251.935 28.5043 245.445 29.9811" fill="#090814"/>
<path d="M244.918 56.7202C236.317 57.7819 230.107 66.3182 224.864 74.1939C221.845 78.7341 218.677 83.7513 218.755 89.4624C218.832 95.2346 222.202 100.184 223.813 105.657C225.068 110.168 225.15 115 224.049 119.564C222.949 124.128 220.712 128.227 217.613 131.361C223.807 132.709 230.499 127.392 231.569 120.279C232.812 112.001 227.331 104.01 227.979 95.6364C228.549 88.2635 233.625 82.5864 237.935 77.073C242.244 71.5596 246.297 64.2442 244.312 57.1958" fill="#090814"/>
<path d="M246.565 404.916C246.565 404.916 174.647 413.085 169.299 403.555C163.95 394.024 242.28 384.494 242.28 384.494L246.565 404.916Z" fill="#ED9DA0"/>
<path d="M200.711 252.203L199.225 261.236C203.273 268.077 203.659 275.306 201.305 282.838L283.327 283.519C282.448 273.344 281.479 262.437 284.855 252.437L200.711 252.203Z" fill="#ED9DA0"/>
<path d="M335.06 319.372L305.312 292.116C303.348 290.308 301.716 288.071 300.511 285.536C299.307 283 298.554 280.216 298.295 277.345L293.713 225.426L321.024 214.997L327.61 266.405L344.02 309.12L335.072 319.369H335.066L335.06 319.372Z" fill="#ED9DA0"/>
<path d="M221.215 138.182L261.037 136.14L303.237 159.161L286.001 253.224L198.63 260.712L186.742 156.561L221.215 138.182Z" fill="#6C63FF"/>
<path d="M284.854 274.898C290.84 283.932 293.347 305.681 295.891 327.314C295.891 327.314 185.34 326.634 184.745 326.634C184.151 326.634 201.643 281.025 201.643 281.025L284.854 274.898Z" fill="#090814"/>
<path d="M288.467 321.54L295.896 327.312C295.896 327.312 401.098 319.144 392.183 357.264C383.267 395.384 355.333 401.511 355.333 401.511L242.404 409L241.215 387.896C241.215 387.896 132.447 415.805 122.343 358.626C112.238 301.446 184.75 326.632 184.75 326.632L288.467 321.54Z" fill="#090814"/>
<path d="M244.075 366.796C244.075 366.796 246.565 351.82 264.396 357.949C282.226 364.077 292.331 372.244 292.331 372.244L249.537 384.497L244.075 366.796Z" fill="#ED9DA0"/>
<path d="M288.676 157.582C288.676 157.582 308.883 149.414 316.61 175.962C324.337 202.51 322.554 224.294 322.554 224.294L292.836 235.185L288.676 157.582Z" fill="#6C63FF"/>
<path d="M150.098 323.516L143.615 310.432L157.625 270.494L164.21 219.08L191.521 229.509L186.879 282.06C186.637 284.733 185.934 287.325 184.812 289.685C183.69 292.045 182.17 294.127 180.341 295.81L150.098 323.523V323.516Z" fill="#ED9DA0"/>
<path d="M196.549 157.582C196.549 157.582 176.339 149.414 168.614 175.962C160.889 202.51 162.67 224.294 162.67 224.294L192.389 235.185L196.549 157.582Z" fill="#6C63FF"/>
<path d="M343.654 325.38C351.533 325.38 357.919 314.561 357.919 301.215C357.919 287.868 351.533 277.049 343.654 277.049C335.776 277.049 329.39 287.868 329.39 301.215C329.39 314.561 335.776 325.38 343.654 325.38Z" fill="#ED9DA0"/>
<path d="M143.355 329.464C151.233 329.464 157.62 318.645 157.62 305.299C157.62 291.953 151.233 281.134 143.355 281.134C135.476 281.134 129.09 291.953 129.09 305.299C129.09 318.645 135.476 329.464 143.355 329.464Z" fill="#ED9DA0"/>
<path d="M197.827 345.693L249.536 362.711L259.643 383.134L240.32 387.899" fill="#090814"/>
<path d="M57.1167 371.294H42.5802L35.9689 332.058C35.8684 331.462 35.8843 330.847 36.0154 330.258C36.1465 329.67 36.3895 329.122 36.7272 328.653C37.0648 328.185 37.4887 327.808 37.9685 327.549C38.4483 327.29 38.9721 327.156 39.5024 327.156H60.1971C60.7274 327.156 61.2513 327.29 61.731 327.549C62.2108 327.808 62.6347 328.185 62.9723 328.653C63.31 329.122 63.553 329.67 63.6841 330.258C63.8152 330.847 63.8311 331.462 63.7306 332.058L57.1167 371.294Z" fill="#E6E6E6"/>
<path d="M49.1226 329.881C53.1737 314.506 52.0672 297.953 46.0197 283.464C45.6 282.455 44.2907 283.336 44.7091 284.342C49.2007 295.24 50.8811 307.381 49.5527 319.336C49.1676 322.752 48.5341 326.124 47.6587 329.419C47.6122 329.638 47.6422 329.87 47.7423 330.065C47.8424 330.26 48.0048 330.402 48.1951 330.462C48.3853 330.523 48.5886 330.495 48.7617 330.387C48.9348 330.278 49.0643 330.097 49.1226 329.881Z" fill="#E6E6E6"/>
<path d="M51.5045 310.438L62.391 293.976L60.9747 293.537C61.1699 299.14 60.4337 304.733 58.8053 310.021C57.3974 314.575 54.9666 320.516 50.0735 320.699C49.0995 320.735 49.095 322.474 50.0735 322.438C55.2801 322.243 58.1461 316.766 59.8366 311.811C61.806 305.993 62.7098 299.773 62.492 293.537C62.4881 293.349 62.431 293.166 62.3293 293.018C62.2277 292.869 62.0869 292.762 61.9278 292.712C61.7687 292.662 61.5999 292.673 61.4464 292.742C61.2929 292.811 61.1629 292.935 61.0758 293.095L50.1894 309.557C49.6042 310.452 50.9219 311.319 51.5045 310.438Z" fill="#E6E6E6"/>
<path d="M50.9418 303.359L44.4921 292.547C44.4131 292.405 44.3005 292.292 44.1674 292.221C44.0343 292.15 43.8863 292.124 43.7408 292.146C43.5952 292.167 43.4581 292.236 43.3454 292.344C43.2328 292.452 43.1494 292.595 43.1049 292.755C41.7508 296.82 41.7015 301.304 42.9659 305.408C44.2303 309.511 46.7262 312.966 50.0084 315.158C50.1817 315.264 50.3841 315.289 50.5731 315.228C50.7621 315.166 50.923 315.024 51.0221 314.83C51.1212 314.635 51.1508 314.405 51.1046 314.186C51.0585 313.967 50.9401 313.778 50.7745 313.657C47.7809 311.658 45.51 308.499 44.3719 304.751C43.2339 301.003 43.3037 296.912 44.5687 293.217L43.1814 293.425L49.6312 304.237C50.179 305.155 51.4948 304.283 50.9418 303.359Z" fill="#E6E6E6"/>
<path d="M45.2614 282.867C43.7692 282.782 42.2172 282.678 40.9683 281.631C40.4963 281.232 40.0943 280.734 39.7832 280.164C39.6298 279.891 39.499 279.603 39.3924 279.302C39.2805 279.015 39.213 278.707 39.1928 278.393C39.1928 278.477 39.2656 278.326 39.1928 278.393L39.0841 278.493C39.0448 278.553 38.9875 278.595 38.9232 278.61C38.8589 278.625 38.7919 278.612 38.7351 278.575C38.6167 278.592 38.6984 278.365 38.6766 278.769C38.6111 279.202 38.6096 279.645 38.672 280.079C38.7154 280.29 38.7965 280.488 38.9104 280.661C39.0242 280.833 39.1682 280.977 39.3332 281.082C39.4982 281.187 39.6806 281.252 39.8687 281.272C40.0568 281.292 40.2465 281.267 40.4256 281.199C40.6797 281.09 40.9256 280.957 41.1608 280.802L41.229 280.762C41.3127 280.716 41.3195 280.713 41.2496 280.752C41.3075 280.64 41.3404 280.859 41.2438 280.734H41.3082L41.2309 280.729C41.1888 280.72 41.149 280.7 41.1145 280.671C41.0801 280.642 41.0519 280.604 41.032 280.56C41.0076 280.474 41.0035 280.461 41.0198 280.523C41.0436 280.561 41.0449 280.733 41.0327 280.566C41.0365 280.622 41.0365 280.68 41.0372 280.736C41.0372 280.883 41.0294 281.025 41.0294 281.171C41.0137 281.531 41.0823 281.891 41.2284 282.211C41.3439 282.427 41.5084 282.602 41.7044 282.719C41.9003 282.836 42.1202 282.89 42.3408 282.874C42.8364 282.848 43.1171 282.452 43.5356 282.237C43.6281 282.183 43.7335 282.166 43.8354 282.188C43.9373 282.211 44.0297 282.271 44.0982 282.361C44.1525 282.44 44.1869 282.534 44.1975 282.634C44.2082 282.734 44.1948 282.836 44.1587 282.928C44.0621 283.128 44.0365 283.363 44.0872 283.585C44.1379 283.806 44.261 283.997 44.431 284.117C44.6053 284.231 44.8117 284.262 45.0059 284.204C45.2001 284.146 45.3665 284.002 45.4694 283.805C45.6386 283.458 45.725 283.067 45.7199 282.67C45.7148 282.273 45.6184 281.884 45.4403 281.544C45.2622 281.203 45.0089 280.922 44.7058 280.729C44.4027 280.537 44.0605 280.439 43.7139 280.446C43.4825 280.45 43.2536 280.501 43.0379 280.597C42.7722 280.696 42.5279 280.858 42.3215 281.074C42.0524 281.457 42.2384 281.064 42.25 281.143C42.25 281.134 42.5197 281.316 42.5397 281.331L42.5661 281.41C42.5468 281.312 42.5431 281.314 42.5551 281.418C42.5551 281.335 42.5474 281.252 42.5474 281.169C42.5729 280.785 42.5479 280.398 42.4734 280.023C42.4108 279.783 42.2949 279.565 42.1369 279.392C41.9789 279.219 41.7843 279.095 41.5721 279.034C41.1641 278.959 40.7461 279.054 40.3941 279.302C40.2596 279.392 40.121 279.474 39.9788 279.547C40.1037 279.493 39.9377 279.565 39.9177 279.556C39.8244 279.515 40.0065 279.556 40.0155 279.556C40.0683 279.583 40.152 279.71 40.1597 279.712C40.1263 279.703 40.1282 279.569 40.1269 279.544C40.1095 279.24 40.1984 278.936 40.1984 278.631C40.2078 278.343 40.1559 278.056 40.047 277.795C39.9381 277.535 39.7755 277.309 39.5733 277.136C39.3568 276.954 39.0921 276.862 38.8236 276.876C38.555 276.89 38.2988 277.009 38.0978 277.214C37.4103 277.938 37.691 279.122 37.9987 279.974C38.3409 280.944 38.8669 281.816 39.5386 282.525C40.2103 283.235 41.011 283.765 41.8831 284.078C42.9832 284.419 44.1173 284.595 45.257 284.603C45.4583 284.603 45.6513 284.512 45.7936 284.349C45.936 284.186 46.0159 283.965 46.0159 283.734C46.0159 283.504 45.936 283.283 45.7936 283.119C45.6513 282.956 45.4583 282.865 45.257 282.865L45.2614 282.867Z" fill="#E6E6E6"/>
<path d="M45.9084 283.718C46.0487 282.096 46.211 280.362 47.1135 279.027C47.5067 278.452 47.9957 277.972 48.5523 277.615C48.8062 277.448 49.0744 277.311 49.3525 277.207C49.5083 277.149 49.666 277.109 49.8237 277.059C50.1031 276.972 49.7709 277.05 49.9138 277.037C49.9543 277.033 49.9949 277.031 50.0355 277.032C50.1312 277.039 50.1432 277.039 50.0716 277.032C50.1823 276.958 50.1475 277.11 50.0979 277.032L50.0529 276.995C49.997 276.934 49.9592 276.855 49.9447 276.769C49.9301 276.682 49.9396 276.593 49.9718 276.513C49.9627 276.403 50.1321 276.489 49.8861 276.444C49.4883 276.335 49.0768 276.308 48.6707 276.365C48.4826 276.403 48.3035 276.486 48.1453 276.608C47.9871 276.731 47.8533 276.891 47.7526 277.077C47.652 277.263 47.5868 277.471 47.5613 277.688C47.5358 277.904 47.5506 278.125 47.6047 278.335C47.6997 278.647 47.8124 278.951 47.942 279.246C47.8931 279.108 47.942 279.269 47.9543 279.305C47.9819 279.412 47.9336 279.453 47.9652 279.33C47.972 279.271 47.9868 279.215 48.009 279.162C48.0327 279.119 48.0649 279.083 48.1029 279.056C48.1909 279.019 48.1929 279.015 48.1088 279.043C48.1203 279.022 48.2871 279.043 48.1088 279.038C48.0373 279.038 47.9652 279.038 47.8937 279.033C47.7836 279.027 47.6742 279.012 47.5641 279.007C47.2454 278.972 46.9247 279.042 46.6397 279.209C46.4245 279.356 46.2541 279.576 46.1519 279.838C46.0497 280.1 46.0207 280.391 46.0687 280.673C46.1987 281.085 46.3634 281.482 46.5605 281.858C46.5899 281.962 46.5909 282.073 46.5634 282.177C46.536 282.281 46.4813 282.373 46.4069 282.441C46.3324 282.508 46.2417 282.548 46.1469 282.554C46.0522 282.561 45.9579 282.534 45.8769 282.478C45.0232 281.931 44.2572 283.432 45.1108 283.979C45.4173 284.19 45.7682 284.301 46.1258 284.301C46.4834 284.301 46.8343 284.19 47.1407 283.979C47.4472 283.768 47.6978 283.465 47.8656 283.103C48.0334 282.742 48.1121 282.335 48.0933 281.926C48.0263 281.395 47.8556 280.889 47.5938 280.444C47.5938 280.444 47.5126 280.297 47.5448 280.309C47.7418 280.382 47.4457 280.663 47.4058 280.711L47.3337 280.747C47.4195 280.726 47.415 280.725 47.3201 280.744C47.3897 280.74 47.4585 280.744 47.5281 280.744C47.8755 280.797 48.2283 280.783 48.5716 280.702C48.7788 280.634 48.9672 280.506 49.1191 280.33C49.2711 280.155 49.3815 279.938 49.44 279.7C49.5154 279.216 49.4373 278.717 49.2198 278.293C49.196 278.234 49.0744 277.914 49.1111 278.03C49.1066 278.016 49.0467 277.797 49.0506 277.797C49.1259 277.797 48.9707 278.096 49.0615 277.884C49.1677 277.638 48.9578 278.142 48.943 278.075C48.9366 278.048 49.0847 278.058 49.0911 278.058C49.3563 278.065 49.6164 278.173 49.8836 278.185C50.1424 278.206 50.4017 278.151 50.6372 278.026C50.8726 277.901 51.0765 277.71 51.2296 277.47C51.3868 277.216 51.4621 276.908 51.4428 276.597C51.4234 276.287 51.3105 275.993 51.1234 275.768C50.5041 275.043 49.4954 275.298 48.7615 275.606C47.9317 275.951 47.1729 276.487 46.5322 277.183C45.8289 277.961 45.2948 278.918 44.973 279.975C44.645 281.192 44.4483 282.449 44.3872 283.72C44.3886 283.95 44.469 284.17 44.611 284.333C44.7531 284.496 44.9454 284.588 45.1462 284.589C45.3464 284.585 45.5375 284.492 45.6791 284.33C45.8207 284.168 45.9017 283.949 45.9052 283.72L45.9084 283.718Z" fill="#E6E6E6"/>
<path d="M45.8395 281.9C45.1958 280.512 44.4255 279.205 43.5414 278.003C43.3341 277.72 43.1195 277.443 42.8976 277.173C42.6941 276.958 42.5063 276.724 42.3363 276.473C42.3041 276.411 42.3111 276.378 42.2931 276.365C42.2798 276.304 42.2798 276.3 42.2931 276.353C42.3045 276.388 42.3045 276.426 42.2931 276.461C42.3021 276.53 42.2326 276.516 42.2996 276.449C42.1792 276.568 42.0858 276.679 41.8965 276.613C41.8257 276.588 41.7788 276.5 41.7241 276.466C41.6693 276.431 41.7389 276.438 41.7241 276.487C41.6944 276.586 41.6165 276.814 41.5689 276.946L43.0328 277.408C43.0521 277.3 43.1216 277.193 43.0328 277.317C43.0664 277.272 43.1029 277.23 43.1422 277.191C43.0933 277.238 43.1066 277.232 43.1821 277.174C43.0772 277.219 43.2942 277.136 43.2967 277.135C43.15 277.17 43.4976 277.17 43.3701 277.14C43.5072 277.182 43.6334 277.261 43.7379 277.371C43.8424 277.481 43.922 277.618 43.9701 277.771C44.1256 278.243 44.1929 278.748 44.1677 279.252C44.1706 279.828 44.1188 280.403 44.0132 280.966C43.9645 281.188 43.9924 281.423 44.0911 281.622C44.1897 281.821 44.3516 281.969 44.543 282.035C44.737 282.094 44.9434 282.063 45.1179 281.95C45.2924 281.836 45.4212 281.649 45.4765 281.428C45.7803 279.806 45.9271 277.708 44.9524 276.337C44.743 276.03 44.4718 275.785 44.1618 275.624C43.8518 275.463 43.5124 275.39 43.1725 275.412C42.7985 275.442 42.4424 275.607 42.1548 275.882C41.8671 276.158 41.6626 276.53 41.5702 276.946C41.5167 277.169 41.5424 277.406 41.6419 277.607C41.7413 277.807 41.9062 277.954 42.1003 278.016C42.2944 278.077 42.5019 278.047 42.677 277.934C42.8521 277.82 42.9805 277.631 43.0341 277.409C43.161 277.127 43.2272 276.815 43.2272 276.499C43.2272 276.182 43.161 275.87 43.0341 275.589C42.9024 275.329 42.7003 275.125 42.4584 275.008C42.2165 274.891 41.9478 274.867 41.6931 274.94C41.4394 275.037 41.2171 275.219 41.0556 275.463C40.894 275.707 40.8007 276.002 40.788 276.308C40.7861 276.586 40.8332 276.863 40.9264 277.12C41.0196 277.377 41.1571 277.611 41.3307 277.806C41.9056 278.559 42.5191 279.255 43.0405 280.063C43.5949 280.923 44.092 281.831 44.5276 282.777C44.6292 282.976 44.7956 283.12 44.9904 283.179C45.1851 283.237 45.3921 283.205 45.5659 283.089C45.7397 282.972 45.8661 282.782 45.9172 282.559C45.9682 282.336 45.9398 282.098 45.8383 281.899L45.8395 281.9Z" fill="#E6E6E6"/>
<path d="M461.124 370.372C461.015 370.428 444.296 370.428 444.406 370.483C438.398 359.086 436.069 349.454 435.299 342.404C435.13 340.79 435.261 339.153 435.683 337.601C436.106 336.049 436.811 334.617 437.751 333.399C438.692 332.181 439.847 331.205 441.14 330.535C442.433 329.864 443.836 329.515 445.255 329.51L460.388 329.409C461.712 329.399 463.024 329.687 464.25 330.258C465.476 330.828 466.592 331.67 467.534 332.735C468.476 333.8 469.226 335.066 469.74 336.463C470.254 337.86 470.523 339.359 470.532 340.875C470.566 349.442 468.893 361.187 461.124 370.372Z" fill="#E6E6E6"/>
<path d="M452.485 330.87C453.304 323.262 452.974 315.55 451.51 308.07C451.265 306.817 449.581 307.346 449.826 308.602C451.243 315.909 451.552 323.441 450.74 330.868C450.602 332.144 452.349 332.13 452.485 330.87Z" fill="#E6E6E6"/>
<path d="M454.824 331.367C455.217 325.023 456.602 318.812 458.913 313.029C459.377 311.868 457.873 310.85 457.405 312.019C454.959 318.118 453.493 324.673 453.078 331.367C452.998 332.652 454.744 332.646 454.824 331.367Z" fill="#E6E6E6"/>
<path d="M449.938 331.164C449.431 324.061 447.655 317.153 444.721 310.868C444.19 309.733 442.682 310.742 443.214 311.877C446.007 317.849 447.702 324.413 448.193 331.165C448.286 332.437 450.031 332.448 449.938 331.164Z" fill="#E6E6E6"/>
<path d="M444.098 310.204C443.102 309.788 442.99 308.048 442.758 307.048C442.599 306.28 442.342 305.543 441.997 304.861C441.6 304.18 441.147 303.545 440.645 302.964C440.234 302.532 439.9 302.013 439.662 301.435C439.589 301.214 439.569 300.974 439.603 300.741C439.636 300.64 439.661 300.537 439.676 300.431L439.689 300.396C439.744 300.274 439.661 300.292 439.441 300.45C439.441 300.466 439.863 300.733 439.907 300.771C441.113 301.851 442.035 303.292 442.572 304.933C443.109 306.575 443.24 308.355 442.951 310.076C442.725 311.33 444.407 311.869 444.634 310.608C445.014 308.461 444.855 306.235 444.174 304.188C443.493 302.141 442.319 300.357 440.789 299.044C440.393 298.669 439.895 298.466 439.382 298.47C439.075 298.508 438.784 298.649 438.546 298.875C438.308 299.101 438.134 299.402 438.044 299.741C437.895 300.199 437.832 300.688 437.859 301.176C437.886 301.664 438.003 302.141 438.201 302.574C438.927 304.229 440.428 305.179 440.93 307.001C441.488 309.023 441.638 311.296 443.634 312.13C443.857 312.198 444.095 312.163 444.296 312.032C444.496 311.901 444.644 311.686 444.708 311.431C444.764 311.176 444.732 310.905 444.619 310.676C444.505 310.447 444.319 310.277 444.098 310.201V310.204Z" fill="#E6E6E6"/>
<path d="M451.096 307.532C450.061 307.102 449.961 305.494 449.68 304.459C449.166 302.913 448.397 301.494 447.417 300.28C447.022 299.79 446.741 299.195 446.598 298.549C446.582 298.425 446.579 298.299 446.59 298.174C446.601 298.054 446.689 297.869 446.674 297.76L446.687 297.725C446.742 297.603 446.659 297.621 446.438 297.779C446.489 297.8 446.538 297.824 446.586 297.852C446.715 297.981 446.884 298.077 447.022 298.203C448.13 299.224 448.985 300.558 449.504 302.073C450.098 303.764 450.252 305.615 449.949 307.404C449.723 308.657 451.405 309.197 451.632 307.936C452.003 305.838 451.86 303.664 451.218 301.655C450.575 299.646 449.459 297.879 447.993 296.553C447.64 296.196 447.215 295.946 446.756 295.823C446.45 295.762 446.135 295.812 445.855 295.965C445.574 296.119 445.343 296.369 445.193 296.68C444.985 297.131 444.866 297.629 444.843 298.138C444.82 298.647 444.894 299.156 445.061 299.629C445.678 301.444 447.206 302.598 447.822 304.402C448.149 305.361 448.284 306.382 448.64 307.327C448.819 307.825 449.09 308.273 449.434 308.641C449.777 309.009 450.186 309.289 450.632 309.461C451.689 309.903 452.145 307.969 451.096 307.533L451.096 307.532Z" fill="#E6E6E6"/>
<path d="M458.863 312.069C458.19 310.643 459.132 308.95 459.523 307.581C459.944 306.106 459.881 304.568 460.181 303.073C460.264 302.464 460.533 301.909 460.94 301.506C461.051 301.411 461.402 301.301 461.126 301.256C460.923 301.223 461.022 301.263 461.076 301.486C461.156 301.826 461.211 302.174 461.24 302.525C461.372 304.068 461.182 305.625 460.684 307.066C460.152 308.636 459.255 310.009 458.091 311.037C457.896 311.177 457.756 311.396 457.698 311.65C457.639 311.904 457.668 312.174 457.778 312.405C457.896 312.632 458.087 312.798 458.311 312.865C458.534 312.932 458.772 312.895 458.972 312.763C460.384 311.549 461.495 309.932 462.193 308.074C462.89 306.216 463.151 304.181 462.95 302.171C462.838 301.166 462.675 299.822 461.712 299.428C460.769 299.042 459.811 299.825 459.252 300.65C458.208 302.191 458.402 304.199 458.084 306.007C457.658 308.432 456.189 310.606 457.357 313.078C457.891 314.211 459.399 313.202 458.864 312.069L458.863 312.069Z" fill="#E6E6E6"/>
<path d="M451.476 300.492C450.752 298.973 451.466 297.267 451.826 295.743C452.046 294.232 452.342 292.737 452.71 291.264C452.883 290.711 453.197 290.231 453.611 289.885C453.694 289.824 453.78 289.771 453.869 289.724C453.86 289.656 453.604 289.682 453.611 289.659C453.635 289.8 453.671 289.938 453.717 290.071C453.787 290.418 453.835 290.77 453.861 291.125C453.963 292.61 453.768 294.103 453.29 295.489C452.758 297.058 451.862 298.431 450.697 299.459C450.503 299.599 450.362 299.818 450.304 300.072C450.246 300.326 450.275 300.596 450.384 300.827C450.502 301.054 450.694 301.22 450.917 301.287C451.141 301.354 451.378 301.317 451.578 301.185C452.981 299.98 454.086 298.379 454.785 296.537C455.484 294.696 455.753 292.678 455.566 290.682C455.464 289.728 455.34 288.48 454.527 287.954C453.635 287.374 452.61 288.101 451.996 288.854C450.814 290.304 450.675 292.324 450.35 294.176C449.914 296.664 448.792 299.042 449.964 301.504C450.502 302.634 452.01 301.625 451.472 300.494L451.476 300.492Z" fill="#E6E6E6"/>
<path d="M456.694 319.591C457.321 318.422 458.594 318.305 459.671 318.085C460.345 317.96 461.008 317.765 461.652 317.502C462.35 317.207 463.022 316.827 463.728 316.549C464.317 316.247 464.977 316.18 465.602 316.359C465.638 316.373 466.032 316.622 466.047 316.612C466.103 316.578 465.952 316.349 465.965 316.349C465.957 316.349 465.895 316.452 465.882 316.463C465.615 316.673 465.394 316.979 465.128 317.2C464.038 318.096 462.777 318.681 461.45 318.907C459.98 319.17 458.475 318.963 457.1 318.31C456.899 318.185 456.663 318.152 456.441 318.218C456.22 318.285 456.028 318.446 455.906 318.669C455.791 318.898 455.759 319.17 455.818 319.426C455.877 319.682 456.021 319.901 456.219 320.036C457.884 320.858 459.712 321.153 461.51 320.891C463.309 320.629 465.014 319.82 466.446 318.547C467.155 317.905 467.946 317.05 467.648 315.907C467.371 314.849 466.215 314.381 465.354 314.276C463.475 314.046 461.82 315.504 460.051 315.972C458.204 316.456 456.285 316.54 455.187 318.587C454.596 319.686 456.106 320.692 456.694 319.596L456.694 319.591Z" fill="#E6E6E6"/>
<path d="M452.11 307.429C451.431 305.619 451.354 303.586 451.895 301.716C452.437 299.846 453.558 298.267 455.046 297.28C455.114 297.235 455.182 297.192 455.251 297.151C455.38 297.126 455.399 297.091 455.31 297.048C455.452 296.498 455.254 296.929 455.201 297.07C455.043 297.493 454.882 297.915 454.719 298.335C454.355 299.275 453.982 300.208 453.599 301.136C452.809 303.053 451.983 304.953 451.079 306.802C450.53 307.927 452.037 308.936 452.587 307.812C453.461 306.02 454.26 304.183 455.033 302.328C455.408 301.421 455.775 300.508 456.132 299.591C456.288 299.189 456.443 298.785 456.596 298.38C456.811 297.948 456.956 297.475 457.026 296.985C457.026 296.718 456.977 296.453 456.882 296.209C456.786 295.965 456.647 295.747 456.473 295.569C456.3 295.39 456.095 295.256 455.873 295.174C455.651 295.092 455.416 295.065 455.184 295.094C454.325 295.35 453.539 295.858 452.903 296.568C451.618 297.797 450.669 299.424 450.169 301.254C449.547 303.63 449.702 306.183 450.605 308.438C450.723 308.665 450.914 308.831 451.138 308.898C451.361 308.965 451.599 308.928 451.799 308.796C451.995 308.658 452.137 308.439 452.195 308.184C452.253 307.93 452.224 307.659 452.113 307.428L452.11 307.429Z" fill="#E6E6E6"/>
<path d="M445.866 317.23C444.612 317.874 443.083 316.645 441.96 316.117C440.705 315.528 439.362 315.47 438.083 315C437.602 314.85 437.18 314.514 436.891 314.049C436.852 313.954 436.806 313.863 436.754 313.777C436.799 313.789 436.566 313.954 436.667 313.931C436.756 313.91 436.845 313.884 436.936 313.866C437.26 313.807 437.587 313.776 437.915 313.775C439.315 313.753 440.697 314.135 441.935 314.885C443.172 315.635 444.225 316.729 444.996 318.068C445.602 319.146 447.113 318.141 446.504 317.058C445.541 315.359 444.205 313.978 442.631 313.054C441.056 312.131 439.298 311.696 437.531 311.793C436.656 311.857 435.585 311.968 435.136 312.973C434.677 313.995 435.346 315.247 436.012 315.928C437.29 317.234 439.057 317.165 440.613 317.687C441.653 318.036 442.588 318.684 443.61 319.088C444.628 319.522 445.756 319.477 446.745 318.962C446.944 318.827 447.088 318.607 447.146 318.351C447.205 318.096 447.173 317.824 447.058 317.594C446.937 317.37 446.746 317.208 446.524 317.141C446.301 317.074 446.065 317.108 445.864 317.236L445.866 317.23Z" fill="#E6E6E6"/>
</g>
<defs>
<clipPath id="clip0_92_2720">
<rect width="515" height="409" fill="white"/>
</clipPath>
</defs>
</svg>
