<svg width="566" height="300" viewBox="0 0 566 300" fill="none" xmlns="http://www.w3.org/2000/svg">
<g clip-path="url(#clip0_17_866)">
<path d="M91.6349 34.1765C87.091 34.1811 82.7346 35.8104 79.5216 38.707C76.3086 41.6035 74.5012 45.5307 74.4961 49.627V217.6C74.5012 221.696 76.3086 225.623 79.5216 228.52C82.7346 231.416 87.091 233.046 91.6349 233.05H477.845C482.388 233.046 486.745 231.416 489.958 228.52C493.171 225.623 494.978 221.696 494.983 217.6V49.627C494.978 45.5307 493.171 41.6035 489.958 38.707C486.745 35.8104 482.388 34.1811 477.845 34.1765H91.6349Z" fill="white"/>
<path d="M477.845 233.653H91.635C86.9138 233.648 82.3876 231.955 79.0492 228.946C75.7108 225.936 73.833 221.856 73.8276 217.6V49.6271C73.833 45.371 75.7108 41.2907 79.0492 38.2812C82.3876 35.2717 86.9138 33.5788 91.635 33.574H477.845C482.566 33.5788 487.092 35.2717 490.43 38.2812C493.769 41.2907 495.647 45.371 495.652 49.6271V217.6C495.647 221.856 493.769 225.936 490.43 228.946C487.092 231.955 482.566 233.648 477.845 233.653ZM91.635 34.7793C87.2683 34.7837 83.0818 36.3494 79.9941 39.133C76.9064 41.9166 75.1695 45.6906 75.1646 49.6271V217.6C75.1695 221.536 76.9064 225.31 79.9941 228.094C83.0818 230.878 87.2683 232.443 91.635 232.448H477.845C482.211 232.443 486.398 230.878 489.485 228.094C492.573 225.31 494.31 221.536 494.315 217.6V49.6271C494.31 45.6906 492.573 41.9165 489.485 39.133C486.398 36.3494 482.211 34.7837 477.845 34.7793H91.635Z" fill="#3F3D56"/>
<path d="M203.072 224.244C203.102 223.57 200.81 222.94 197.952 222.838C195.095 222.736 192.755 223.2 192.725 223.874C192.695 224.548 194.988 225.178 197.845 225.28C200.702 225.382 203.043 224.919 203.072 224.244Z" fill="#E6E6E6"/>
<path d="M236.031 222.67C236.061 221.996 233.769 221.366 230.911 221.264C228.054 221.162 225.714 221.626 225.684 222.3C225.654 222.975 227.947 223.604 230.804 223.707C233.661 223.809 236.002 223.345 236.031 222.67Z" fill="#3F3D56"/>
<path d="M190.409 215.076C190.439 214.402 188.146 213.772 185.289 213.67C182.432 213.568 180.091 214.032 180.062 214.706C180.032 215.38 182.324 216.01 185.182 216.112C188.039 216.214 190.379 215.751 190.409 215.076Z" fill="#FF6584"/>
<path d="M174.49 211.727C174.566 211.124 173.603 210.531 172.339 210.401C171.075 210.271 169.989 210.654 169.913 211.256C169.837 211.859 170.8 212.452 172.063 212.582C173.327 212.712 174.414 212.329 174.49 211.727Z" fill="#E6E6E6"/>
<path d="M166.884 204.704C166.96 204.102 165.997 203.508 164.733 203.379C163.469 203.249 162.383 203.632 162.307 204.234C162.23 204.836 163.193 205.429 164.457 205.559C165.721 205.689 166.808 205.306 166.884 204.704Z" fill="#3F3D56"/>
<path d="M209.869 216.661C209.945 216.059 208.982 215.466 207.718 215.336C206.454 215.206 205.368 215.589 205.292 216.191C205.216 216.793 206.179 217.387 207.443 217.517C208.707 217.646 209.793 217.264 209.869 216.661Z" fill="#E6E6E6"/>
<path d="M194.785 219.65C194.861 219.048 193.898 218.454 192.634 218.324C191.37 218.194 190.284 218.577 190.208 219.179C190.132 219.782 191.094 220.375 192.358 220.505C193.622 220.635 194.709 220.252 194.785 219.65Z" fill="#FF6584"/>
<path d="M219.183 224.463C219.259 223.861 218.296 223.268 217.033 223.138C215.769 223.008 214.682 223.391 214.606 223.993C214.53 224.595 215.493 225.189 216.757 225.319C218.021 225.448 219.107 225.066 219.183 224.463Z" fill="#3F3D56"/>
<path d="M3.521e-06 199.544C-0.000308047 199.638 0.020061 199.732 0.0599316 199.819C0.0998022 199.906 0.158394 199.985 0.232331 200.052C0.306267 200.118 0.394089 200.171 0.490751 200.207C0.587412 200.243 0.691003 200.261 0.795563 200.261H565.205C565.416 200.261 565.618 200.186 565.767 200.051C565.916 199.917 566 199.734 566 199.544C566 199.354 565.916 199.171 565.767 199.037C565.618 198.902 565.416 198.827 565.205 198.827H0.795522C0.690967 198.827 0.587386 198.845 0.49073 198.881C0.394075 198.917 0.306252 198.97 0.23232 199.036C0.158388 199.103 0.0998009 199.182 0.0599316 199.269C0.0200622 199.356 -0.000304472 199.45 3.521e-06 199.544Z" fill="#CCCCCC"/>
<path d="M192.922 186.874C192.537 186.89 192.157 186.799 191.832 186.613C191.507 186.428 191.253 186.156 191.104 185.836C190.956 185.516 190.92 185.163 191.002 184.824C191.084 184.485 191.279 184.177 191.562 183.941L191.69 183.481C191.673 183.444 191.656 183.407 191.639 183.37C191.252 182.545 190.603 181.842 189.774 181.349C188.945 180.856 187.973 180.594 186.979 180.598C185.986 180.601 185.016 180.869 184.191 181.368C183.366 181.866 182.723 182.574 182.342 183.401C180.822 186.702 178.886 190.009 178.409 193.5C178.199 195.043 178.288 196.607 178.671 198.123C175.1 191.1 173.245 183.467 173.233 175.741C173.233 173.802 173.352 171.865 173.591 169.939C173.789 168.359 174.063 166.791 174.414 165.234C176.328 156.786 180.438 148.868 186.406 142.13C189.294 140.709 191.63 138.525 193.099 135.87C193.631 134.916 194.007 133.898 194.215 132.846C193.889 132.885 192.986 128.411 193.232 128.137C192.778 127.516 191.965 127.207 191.469 126.601C189.003 123.586 185.605 124.113 183.831 128.209C180.041 129.933 180.005 132.793 182.33 135.543C183.809 137.292 184.013 139.66 185.311 141.533C185.177 141.687 185.038 141.836 184.905 141.991C182.464 144.82 180.336 147.859 178.552 151.063C178.986 147.473 178.468 143.843 177.042 140.469C175.596 137.325 172.886 134.677 170.5 131.959C167.634 128.694 161.756 130.119 161.251 134.257C161.246 134.297 161.241 134.337 161.236 134.377C161.591 134.558 161.938 134.749 162.277 134.951C162.704 135.208 163.034 135.575 163.225 136.004C163.417 136.434 163.46 136.905 163.349 137.356C163.238 137.808 162.978 138.218 162.604 138.534C162.229 138.851 161.758 139.057 161.251 139.128L161.199 139.135C161.325 140.287 161.549 141.428 161.867 142.549C158.805 153.222 165.415 157.109 174.852 157.284C175.06 157.38 175.263 157.477 175.472 157.568C173.68 162.146 172.556 166.915 172.128 171.754C171.886 174.609 171.9 177.477 172.171 180.33L172.155 180.229C171.471 177.057 169.593 174.194 166.84 172.125C162.75 169.096 156.971 167.981 152.559 165.546C152.09 165.275 151.545 165.13 150.987 165.128C150.43 165.127 149.884 165.27 149.414 165.539C148.943 165.808 148.568 166.193 148.332 166.649C148.097 167.104 148.01 167.61 148.084 168.108C148.09 168.144 148.096 168.179 148.102 168.215C148.759 168.456 149.4 168.734 150.019 169.048C150.374 169.228 150.721 169.419 151.06 169.622C151.487 169.879 151.817 170.246 152.008 170.675C152.199 171.104 152.242 171.575 152.131 172.026C152.02 172.478 151.761 172.889 151.387 173.205C151.012 173.521 150.541 173.728 150.034 173.798L149.982 173.805C149.945 173.81 149.912 173.815 149.875 173.82C150.999 176.239 152.576 178.466 154.538 180.402C156.452 189.719 164.674 190.603 173.469 187.89H173.474C174.439 191.67 175.837 195.35 177.646 198.869H192.548C192.602 198.72 192.65 198.566 192.698 198.416C191.319 198.495 189.934 198.42 188.574 198.195C189.68 196.972 190.786 195.739 191.891 194.516C191.916 194.493 191.939 194.469 191.961 194.444C192.522 193.818 193.088 193.197 193.649 192.571L193.649 192.57C193.679 190.651 193.434 188.736 192.922 186.874Z" fill="#F2F2F2"/>
<path d="M118.526 179.42C117.903 179.445 117.286 179.298 116.758 178.997C116.231 178.696 115.819 178.256 115.579 177.738C115.338 177.219 115.28 176.645 115.413 176.096C115.546 175.546 115.862 175.047 116.321 174.665C116.397 174.39 116.452 174.193 116.529 173.918C116.502 173.858 116.474 173.798 116.446 173.738C115.818 172.401 114.766 171.261 113.422 170.462C112.078 169.662 110.501 169.238 108.891 169.244C107.28 169.249 105.707 169.683 104.37 170.492C103.032 171.301 101.989 172.448 101.372 173.789C98.9069 179.142 95.7681 184.504 94.9952 190.163C94.6548 192.665 94.7984 195.201 95.4196 197.659C89.629 186.272 86.6221 173.895 86.6028 161.369C86.6015 158.225 86.7953 155.084 87.183 151.96C87.5035 149.4 87.9481 146.857 88.5169 144.332C91.6205 130.635 98.2841 117.796 107.96 106.871C112.644 104.567 116.431 101.025 118.813 96.721C119.675 95.1739 120.285 93.5224 120.623 91.8178C120.094 91.8803 118.631 84.6269 119.029 84.1819C118.293 83.1747 116.975 82.674 116.171 81.6913C112.172 76.8034 106.662 77.6569 103.786 84.299C97.6415 87.0946 97.582 91.731 101.352 96.1901C103.751 99.027 104.08 102.866 106.185 105.903C105.968 106.153 105.743 106.395 105.527 106.645C101.569 111.233 98.119 116.16 95.227 121.354C95.9303 115.535 95.091 109.648 92.778 104.177C90.4338 99.0794 86.0399 94.7858 82.1706 90.3786C77.523 85.0848 67.9925 87.3951 67.1737 94.1058C67.1658 94.1708 67.158 94.2357 67.1505 94.3007C67.7252 94.5929 68.2878 94.9032 68.8382 95.2314C69.5297 95.6479 70.0655 96.243 70.3754 96.9387C70.6854 97.6344 70.7549 98.3983 70.575 99.1302C70.3952 99.8622 69.9742 100.528 69.3673 101.041C68.7604 101.553 67.996 101.889 67.174 102.003L67.0899 102.015C67.2946 103.882 67.6565 105.732 68.1725 107.55C63.2086 124.856 73.9252 131.159 89.227 131.442C89.5648 131.598 89.8939 131.754 90.2317 131.903C87.3262 139.325 85.5037 147.057 84.81 154.904C84.4173 159.533 84.4405 164.184 84.8793 168.809L84.8533 168.646C83.7446 163.502 80.7007 158.86 76.2357 155.505C69.604 150.594 60.2347 148.786 53.0802 144.838C49.6363 142.938 45.2231 145.394 45.8242 148.993C45.8338 149.05 45.8435 149.108 45.8535 149.165C46.92 149.557 47.9584 150.008 48.9627 150.516C49.5374 150.808 50.0999 151.119 50.6504 151.447C51.3419 151.863 51.8777 152.458 52.1876 153.154C52.4976 153.85 52.5671 154.614 52.3872 155.346C52.2073 156.078 51.7864 156.743 51.1795 157.256C50.5726 157.769 49.8081 158.104 48.9862 158.218L48.902 158.23C48.8414 158.238 48.7894 158.246 48.7288 158.254C50.5511 162.176 53.1087 165.786 56.2897 168.927C59.3935 184.034 72.7241 185.467 86.9838 181.068H86.9925C88.5571 187.197 90.824 193.162 93.7567 198.869H117.92C118.007 198.627 118.085 198.377 118.163 198.135C115.926 198.262 113.681 198.141 111.477 197.776C113.27 195.793 115.062 193.794 116.855 191.811C116.895 191.774 116.933 191.735 116.968 191.694C117.877 190.679 118.795 189.672 119.705 188.657L119.705 188.655C119.754 185.544 119.357 182.44 118.527 179.42L118.526 179.42Z" fill="#F2F2F2"/>
<path d="M449.226 10.872C447.603 -0.337064 418.923 0.377974 416.215 10.9239C414.778 10.114 411.124 10.6746 409.762 11.6056C408.399 12.5366 407.525 13.9052 406.67 15.2338C405.502 17.0791 404.292 18.9904 404.034 21.1062C403.764 23.2179 404.685 25.6102 406.808 26.5505C408.493 27.2998 412.2 26.7938 414.052 26.4583C415.345 26.2267 416.429 26.0238 417.35 25.8249C417.659 24.5123 417.446 23.1436 416.747 21.9587C417.491 22.0919 418.194 22.3719 418.804 22.7786C419.413 23.1854 419.916 23.7087 420.275 24.3112C420.42 24.5635 425.674 60.2202 425.674 60.2202C427.111 60.3763 428.56 60.4089 430.003 60.3176C430.899 55.9293 431.062 51.445 430.487 47.0132C432.009 49.5463 433.212 52.2243 434.076 54.9978C434.571 56.549 434.977 58.122 435.294 59.7106C447.799 57.6026 464.703 50.3419 467.788 38.0132C467.771 37.9734 467.754 37.9336 467.737 37.8939C467.568 37.5171 467.55 37.0992 467.686 36.7118C467.821 36.3244 468.102 35.9915 468.48 35.7702C468.858 35.5489 469.309 35.4529 469.757 35.4988C470.205 35.5446 470.621 35.7293 470.934 36.0213C471.311 36.3711 471.648 36.6701 471.931 36.9017C470.835 29.0284 464.211 21.9435 449.226 10.872Z" fill="#2F2E41"/>
<path d="M266.637 285.394L259.626 282.09L270.743 255.595L281.091 260.473L266.637 285.394Z" fill="#A0616A"/>
<path d="M238.348 285.075C237.914 285.824 237.828 286.698 238.108 287.505C238.388 288.312 239.012 288.986 239.842 289.379L253.783 295.948L258.778 292.601L257.121 297.518L262.379 300L270.166 283.329L268.391 282.371L261.159 278.444L258.823 277.181L256.2 281.704L241.047 283.388C240.479 283.451 239.937 283.638 239.467 283.932C238.997 284.225 238.613 284.618 238.348 285.075Z" fill="#2F2E41"/>
<path d="M259.454 187.859L254.355 182.406L275.779 161.684L283.305 169.732L259.454 187.859Z" fill="#A0616A"/>
<path d="M233.408 177.9C232.692 178.446 232.245 179.225 232.165 180.068C232.085 180.91 232.379 181.747 232.983 182.394L243.122 193.235L249.152 191.844L245.552 195.828L249.374 199.921L263.588 187.153L262.348 185.66L257.306 179.555L255.675 177.589L251.347 180.879L236.616 177.261C236.064 177.126 235.483 177.113 234.925 177.225C234.366 177.336 233.846 177.568 233.408 177.9Z" fill="#2F2E41"/>
<path d="M484.35 167.426C484.35 167.426 506 209.201 416.344 197.944C416.344 197.944 368.577 150.222 369.957 144.48C369.957 144.48 349.626 125.857 350.621 125.518C351.616 125.179 352.23 124.442 350.586 124.509C348.942 124.576 348.942 122.37 348.942 122.37C348.942 122.37 312.2 158.29 281.263 176.114L270.567 165.266C270.567 165.266 274.738 153.503 276.744 153.503C278.749 153.503 279.441 153.938 279.763 151.611C280.086 149.285 278.489 147.287 280.625 147.081C282.76 146.874 327.02 100.241 327.02 100.241C327.02 100.241 331.796 84.8818 346.385 87.8548C360.975 90.8279 436.787 146.392 436.787 146.392L484.35 167.426Z" fill="#2F2E41"/>
<path d="M447.841 199.298L329.395 198.412L277.92 271.935L263.374 264.993L266.598 263.766C266.598 263.766 265.622 253.547 266.818 250.96C268.014 248.373 271.572 249.151 271.572 249.151L301.583 186.76C303.652 181.222 307.718 176.468 313.133 173.254C318.548 170.041 324.999 168.553 331.461 169.029C356.293 165.764 396.604 168.372 438.482 171.576L447.841 199.298Z" fill="#2F2E41"/>
<path d="M379.264 74.1696C381.519 74.4811 383.55 75.5734 384.925 77.2141C386.299 78.8548 386.91 80.9144 386.626 82.9546C386.561 83.3685 386.458 83.7768 386.318 84.1754L410.656 100.818L405.634 114.922L375.028 88.8745C373.24 88.2244 371.74 87.0588 370.764 85.5597C369.787 84.0605 369.389 82.3121 369.63 80.5873C369.778 79.6071 370.139 78.6627 370.692 77.8082C371.245 76.9536 371.979 76.2056 372.852 75.6068C373.726 75.008 374.722 74.5702 375.783 74.3183C376.844 74.0664 377.95 74.0055 379.037 74.1389C379.113 74.1482 379.189 74.1584 379.264 74.1696Z" fill="#A0616A"/>
<path d="M486.634 75.2085L477.883 97.0485L443.663 140.644C443.663 140.644 443.382 140.536 442.874 140.343C439.933 139.198 429.25 134.991 419.202 130.212C409.77 125.722 400.885 120.727 399.508 117.291C399.361 116.93 399.228 116.58 399.107 116.243V116.237C398.466 114.488 398.064 112.674 397.911 110.837C397.797 109.421 397.897 108.661 397.683 108.571C397.516 108.505 397.169 108.83 396.4 109.565C396.346 109.614 396.299 109.662 396.246 109.704C393.465 112.217 390.049 111.892 390.885 110.698C391.74 109.475 391.292 109.499 390.036 108.222C389.1 107.269 386.058 103.545 384.561 101.707C384.046 101.074 383.718 100.664 383.718 100.664L384.233 99.9352L385.657 97.9223L392.429 88.3523L392.803 87.828C392.803 87.828 406.721 90.7267 408.573 93.4808C410.432 96.2349 405.772 96.1445 410.432 96.2349C415.091 96.3253 419.844 90.6122 416.441 96.2952C413.039 101.972 413.934 103.955 418.146 103.057C419.857 102.689 422.565 103.852 425.172 105.359V105.365C426.802 106.32 428.375 107.352 429.885 108.457C431.496 109.626 432.586 110.512 432.586 110.512L459.018 62.1672L461.946 56.8157C462.839 55.1873 464.082 53.7356 465.604 52.5456C467.126 51.3556 468.896 50.4512 470.811 49.8853L471.726 51.3256C477.429 58.8962 482.415 66.8853 486.634 75.2085Z" fill="#00931B"/>
<path d="M488.098 144.525C496.2 146.224 487.581 199.393 477.923 199.559C407.731 200.764 429.103 165.262 425.339 161.863C421.575 158.458 418.179 160.899 421.575 155.602C424.049 151.745 427.719 152.317 427.772 150.154C427.799 149.346 427.324 148.165 426.094 146.224C421.575 139.089 421.575 136.962 421.575 136.962C420.449 134.819 419.651 132.548 419.202 130.212C418.469 126.738 418.379 123.179 418.935 119.678C419.783 114.542 421.916 109.648 425.172 105.365V105.359C425.513 104.901 425.867 104.437 426.242 103.979C427.091 102.936 431.797 103.135 431.797 103.135L441.824 65.1684L436.022 50.0299L463.504 38.4229L470.81 49.8852L471.726 51.3255C477.429 58.8962 482.415 66.8852 486.634 75.2085C490.692 83.3502 494.028 92.3899 494.148 100.254C494.469 120.763 490.545 126.861 490.545 126.861C490.545 126.861 500.071 133.28 495.304 137.203C490.545 141.132 479.996 142.826 488.098 144.525Z" fill="#00931B"/>
<path d="M363.597 69.1747L359.113 72.2453C358.227 72.8559 357.646 73.7581 357.496 74.7542C357.347 75.7503 357.642 76.7591 358.316 77.5597L369.115 90.3561L375.492 97.9057C376.169 98.703 377.168 99.2261 378.271 99.3605C379.374 99.4949 380.492 99.2297 381.378 98.6229L385.867 95.5485C386.75 94.9362 387.328 94.0346 387.476 93.04C387.624 92.0453 387.33 91.0382 386.659 90.2378L385.997 89.4492L372.915 73.9539L369.482 69.8918C369.148 69.4962 368.731 69.1638 368.254 68.9136C367.778 68.6634 367.251 68.5004 366.704 68.4338C366.158 68.3672 365.602 68.3983 365.069 68.5254C364.535 68.6526 364.035 68.8732 363.597 69.1747Z" fill="#3F3D56"/>
<path d="M365.942 68.9426L361.111 71.9804C360.685 72.2315 360.323 72.5612 360.049 72.9477C359.774 73.3342 359.594 73.7687 359.52 74.2226C359.445 74.6765 359.478 75.1395 359.617 75.5811C359.755 76.0226 359.996 76.4326 360.323 76.7842L366.646 83.6519L370.015 87.3105L372.263 89.7514L377.291 95.2121C378.002 95.9447 378.987 96.4159 380.058 96.5361C381.13 96.6562 382.213 96.4168 383.101 95.8635L386.721 93.5874L387.925 92.8301C388.525 92.4693 388.994 91.9566 389.272 91.3564C389.55 90.7562 389.625 90.0953 389.488 89.4567C389.367 88.9261 389.101 88.4311 388.714 88.0166L373.858 71.8783L371.752 69.5941C371.042 68.8605 370.057 68.3885 368.985 68.2683C367.913 68.1481 366.83 68.3882 365.942 68.9426Z" fill="#00931B"/>
<path d="M369.028 85.9045C371.283 86.216 373.314 87.3083 374.688 88.949C376.063 90.5897 376.674 92.6493 376.39 94.6895C376.325 95.1034 376.222 95.5117 376.082 95.9103L400.42 112.553L395.398 126.657L364.792 100.609C363.003 99.9593 361.504 98.7937 360.528 97.2945C359.551 95.7954 359.153 94.047 359.394 92.3222C359.542 91.3419 359.903 90.3976 360.456 89.543C361.009 88.6885 361.743 87.9404 362.616 87.3416C363.49 86.7428 364.486 86.305 365.547 86.0532C366.608 85.8013 367.714 85.7403 368.801 85.8738C368.877 85.8831 368.953 85.8933 369.028 85.9045Z" fill="#A0616A"/>
<path d="M468.29 61.223C470.418 61.6134 472.427 62.4123 474.181 63.5653C475.936 64.7183 477.394 66.1984 478.457 67.9049C479.52 69.6113 480.163 71.5042 480.342 73.4547C480.521 75.4052 480.233 77.3676 479.495 79.2085L467.65 108.782L433.424 152.381C433.424 152.381 392.378 136.752 389.27 129.026C386.163 121.301 388.969 118.635 386.163 121.301C383.356 123.967 379.798 123.65 380.65 122.431C381.502 121.211 381.054 121.237 379.799 119.959C378.545 118.681 373.483 112.401 373.483 112.401L382.567 99.5641C382.567 99.5641 396.485 102.461 398.34 105.216C400.194 107.972 395.534 107.882 400.194 107.972C404.855 108.062 409.61 102.347 406.205 108.029C402.801 113.71 403.698 115.691 407.91 114.79C412.122 113.89 422.346 122.248 422.346 122.248L451.713 68.552C453.19 65.8512 455.617 63.6673 458.616 62.3414C461.615 61.0155 465.017 60.6223 468.29 61.223Z" fill="#00931B"/>
<path d="M450.777 43.4211C459.285 35.7506 459.285 23.3143 450.777 15.6438C442.268 7.97334 428.473 7.97334 419.964 15.6438C411.456 23.3143 411.456 35.7506 419.964 43.4211C428.473 51.0916 442.268 51.0916 450.777 43.4211Z" fill="#A0616A"/>
<path d="M460.848 8.13474C459.226 -3.07437 430.545 -2.35933 427.837 8.18662C426.401 7.37666 422.747 7.93728 421.384 8.86827C420.021 9.79926 419.148 11.1679 418.292 12.4965C417.125 14.3418 408.955 20.5848 407.731 18.7646C404.976 14.6683 399.573 23.6194 403.72 29.6122C404.714 31.0492 423.928 28.7424 425.78 28.407C427.073 28.1753 424.86 28.6059 425.78 28.407C426.078 27.1068 429.08 20.3895 428.37 19.2214C429.114 19.3546 429.816 19.6346 430.426 20.0413C431.036 20.448 431.538 20.9714 431.897 21.5738C432.042 21.8262 437.297 57.4829 437.297 57.4829C438.733 57.639 440.183 57.6716 441.626 57.5803C442.521 53.192 442.684 48.7077 442.109 44.2759C443.631 46.809 444.835 49.487 445.698 52.2604C446.193 53.8117 446.6 55.3847 446.916 56.9733C459.422 54.8653 476.326 47.6045 479.41 35.2758C462.548 30.2149 475.833 19.2062 460.848 8.13474Z" fill="#2F2E41"/>
<path d="M270.136 64.4618C270.415 62.7304 268.404 61.0332 265.643 60.6711C262.882 60.309 260.417 61.419 260.138 63.1504C259.858 64.8818 261.87 66.579 264.631 66.9411C267.392 67.3032 269.856 66.1932 270.136 64.4618Z" fill="#E6E6E6"/>
<path d="M303.007 61.5702C303.287 59.8388 301.275 58.1416 298.514 57.7795C295.753 57.4174 293.289 58.5274 293.009 60.2588C292.73 61.9902 294.741 63.6874 297.502 64.0495C300.263 64.4116 302.728 63.3016 303.007 61.5702Z" fill="#3F3D56"/>
<path d="M261.135 40.4713C261.414 38.7399 259.403 37.0428 256.642 36.6806C253.881 36.3185 251.416 37.4285 251.137 39.1599C250.857 40.8914 252.869 42.5885 255.63 42.9506C258.391 43.3127 260.855 42.2027 261.135 40.4713Z" fill="#FF6584"/>
<path d="M246.851 30.6447C246.865 29.0552 245.881 27.7598 244.655 27.7515C243.428 27.7431 242.423 29.0249 242.41 30.6144C242.396 32.2039 243.38 33.4992 244.606 33.5076C245.833 33.5159 246.838 32.2342 246.851 30.6447Z" fill="#E6E6E6"/>
<path d="M242.008 12.3412C242.021 10.7517 241.037 9.45636 239.811 9.448C238.584 9.43964 237.579 10.7214 237.566 12.3109C237.553 13.9004 238.536 15.1957 239.763 15.2041C240.989 15.2125 241.994 13.9307 242.008 12.3412Z" fill="#3F3D56"/>
<path d="M279.674 44.5538C279.688 42.9643 278.704 41.669 277.478 41.6606C276.251 41.6523 275.246 42.9341 275.233 44.5236C275.219 46.1131 276.203 47.4084 277.429 47.4168C278.656 47.4251 279.661 46.1433 279.674 44.5538Z" fill="#E6E6E6"/>
<path d="M263.79 51.7038C263.803 50.1143 262.819 48.8189 261.593 48.8106C260.366 48.8022 259.361 50.084 259.348 51.6735C259.335 53.263 260.318 54.5583 261.545 54.5667C262.771 54.575 263.776 53.2933 263.79 51.7038Z" fill="#FF6584"/>
<path d="M285.902 64.9183C285.915 63.3288 284.932 62.0335 283.705 62.0251C282.479 62.0168 281.474 63.2986 281.46 64.8881C281.447 66.4776 282.43 67.7729 283.657 67.7813C284.883 67.7896 285.889 66.5078 285.902 64.9183Z" fill="#3F3D56"/>
<path d="M361.786 81.8198C362.087 81.6263 361.895 80.9206 361.358 80.2437C360.822 79.5668 360.143 79.175 359.843 79.3685C359.542 79.5621 359.734 80.2677 360.271 80.9447C360.808 81.6216 361.486 82.0134 361.786 81.8198Z" fill="#3F3D56"/>
<path d="M359.781 79.4094C360.081 79.2159 359.89 78.5102 359.353 77.8333C358.816 77.1564 358.138 76.7646 357.837 76.9581C357.537 77.1517 357.729 77.8573 358.265 78.5343C358.802 79.2112 359.481 79.603 359.781 79.4094Z" fill="#3F3D56"/>
</g>
<defs>
<clipPath id="clip0_17_866">
<rect width="566" height="300" fill="white"/>
</clipPath>
</defs>
</svg>
