<svg width="400" height="300" viewBox="0 0 400 300" fill="none" xmlns="http://www.w3.org/2000/svg">
<path d="M158.028 31.5486L387.036 0.520237L390.012 0.117861C391.528 -0.088821 393.105 -0.0227083 394.563 0.308589C396.022 0.639886 397.301 1.22292 398.255 1.99067C399.21 2.75842 399.8 3.6797 399.957 4.64862C400.115 5.61754 399.834 6.59474 399.147 7.4679L308.221 123.446C307.633 124.191 306.768 124.836 305.699 125.328C304.631 125.819 303.39 126.142 302.081 126.27C300.768 126.398 299.425 126.323 298.169 126.053C296.912 125.782 295.779 125.323 294.868 124.716L231.714 82.8905C231.265 82.5854 230.72 82.3421 230.114 82.1758C229.508 82.0095 228.853 81.9238 228.192 81.9241C227.292 81.9162 226.406 82.062 225.629 82.3461C224.851 82.6301 224.211 83.0417 223.778 83.5366L210.842 98.5648C210.016 99.5668 208.68 100.367 207.047 100.837C205.414 101.307 203.578 101.42 201.83 101.159L201.766 101.15C199.996 100.915 198.405 100.313 197.246 99.4406C196.087 98.5686 195.429 97.4771 195.377 96.3418L192.786 61.6511C192.755 61.2183 192.583 60.794 192.28 60.4046C191.955 60.0193 191.514 59.6774 190.982 59.3978L154.549 40.612C153.351 39.9946 152.455 39.1777 151.962 38.255C151.47 37.3324 151.401 36.3412 151.765 35.3952C152.128 34.4491 152.908 33.5865 154.016 32.9062C155.124 32.2259 156.514 31.7554 158.028 31.5486ZM156.629 39.0149L193.064 57.8002C193.538 58.0404 193.969 58.3134 194.346 58.614L387.45 3.608C387.62 3.55819 387.798 3.519 387.98 3.491C388.725 3.37052 389.513 3.4173 390.209 3.62325C390.905 3.82919 391.464 4.18136 391.79 4.61885C392.116 5.05635 392.189 5.55166 391.995 6.01917C391.801 6.48668 391.354 6.89699 390.729 7.17915L231.955 80.4342C232.761 80.6973 233.488 81.0457 234.105 81.464L297.26 123.289C297.808 123.652 298.487 123.925 299.239 124.087C299.992 124.249 300.796 124.295 301.582 124.22C302.369 124.145 303.115 123.952 303.757 123.658C304.4 123.363 304.919 122.975 305.272 122.527L396.197 6.55101C396.603 6.02698 396.767 5.44188 396.669 4.8623C396.572 4.28273 396.217 3.73199 395.646 3.27275C395.075 2.81351 394.31 2.46423 393.438 2.26468C392.566 2.06513 391.623 2.02331 390.715 2.144L387.67 2.5565L158.732 33.5748C157.823 33.6984 156.988 33.9803 156.322 34.3881C155.656 34.796 155.187 35.3134 154.967 35.8811C154.748 36.4488 154.788 37.0438 155.081 37.598C155.375 38.1522 155.912 38.6433 156.629 39.0149Z" fill="#198754"/>
<path d="M158.028 31.5486L387.036 0.520237L390.012 0.117861C391.528 -0.088821 393.105 -0.0227083 394.563 0.308589C396.022 0.639886 397.301 1.22292 398.255 1.99067C399.21 2.75842 399.8 3.6797 399.957 4.64862C400.115 5.61754 399.834 6.59474 399.147 7.4679L308.221 123.446C307.633 124.191 306.768 124.836 305.699 125.328C304.631 125.819 303.39 126.142 302.081 126.27C300.768 126.398 299.425 126.323 298.169 126.053C296.912 125.782 295.779 125.323 294.868 124.716L231.714 82.8905C231.265 82.5854 230.72 82.3421 230.114 82.1758C229.508 82.0095 228.853 81.9238 228.192 81.9241C227.292 81.9162 226.406 82.062 225.629 82.3461C224.851 82.6301 224.211 83.0417 223.778 83.5366L210.842 98.5648C210.016 99.5668 208.68 100.367 207.047 100.837C205.414 101.307 203.578 101.42 201.83 101.159L201.766 101.15C199.996 100.915 198.405 100.313 197.246 99.4406C196.087 98.5686 195.429 97.4771 195.377 96.3418L192.786 61.6511C192.755 61.2183 192.583 60.794 192.28 60.4046C191.955 60.0193 191.514 59.6774 190.982 59.3978L154.549 40.612C153.351 39.9946 152.455 39.1777 151.962 38.255C151.47 37.3324 151.401 36.3412 151.765 35.3952C152.128 34.4491 152.908 33.5865 154.016 32.9062C155.124 32.2259 156.514 31.7554 158.028 31.5486ZM156.629 39.0149L193.064 57.8002C193.538 58.0404 193.969 58.3134 194.346 58.614C194.687 58.8811 194.981 59.1702 195.223 59.4765C195.477 59.7902 195.677 60.1199 195.82 60.4601L195.817 60.4703C195.967 60.8246 196.054 61.1886 196.076 61.5551L198.666 96.2458C198.688 96.9279 199.079 97.5851 199.774 98.1093C200.469 98.6335 201.428 98.9934 202.492 99.1299L202.524 99.1344C203.573 99.2981 204.679 99.2344 205.663 98.9537C206.647 98.6731 207.451 98.192 207.945 97.5883L220.884 82.5507C221.551 81.7773 222.521 81.1236 223.703 80.6518C224.885 80.18 226.239 79.9056 227.637 79.8548L227.652 79.8571C227.84 79.8515 228.028 79.8458 228.212 79.85C229.516 79.8504 230.801 80.0508 231.954 80.4338C232.759 80.697 233.487 81.0453 234.104 81.4636L297.26 123.289C297.808 123.652 298.487 123.925 299.239 124.087C299.992 124.249 300.796 124.295 301.582 124.22C302.369 124.145 303.115 123.952 303.757 123.658C304.4 123.363 304.919 122.975 305.272 122.527L396.197 6.55101C396.603 6.02698 396.767 5.44188 396.669 4.8623C396.572 4.28273 396.217 3.73199 395.646 3.27275C395.075 2.81351 394.31 2.46423 393.438 2.26468C392.566 2.06513 391.623 2.02331 390.715 2.144L387.67 2.5565L158.732 33.5748C157.823 33.6984 156.988 33.9803 156.322 34.3881C155.656 34.796 155.187 35.3134 154.967 35.8811C154.748 36.4488 154.788 37.0438 155.081 37.598C155.375 38.1522 155.912 38.6433 156.629 39.0149Z" fill="#3F3D56"/>
<path d="M193.616 58.8195L194.977 60.7039L195.817 60.471L195.821 60.4609L388.771 5.50812L227.654 79.8571L227.639 79.8548L227.212 80.0603L229.155 81.7291L231.956 80.4338L390.73 7.17914C391.354 6.89695 391.801 6.48687 391.994 6.01971C392.188 5.55254 392.115 5.05761 391.79 4.62036C391.464 4.18312 390.906 3.83101 390.211 3.62482C389.516 3.41862 388.728 3.37128 387.984 3.49099C387.801 3.51901 387.624 3.55821 387.453 3.60799L194.347 58.6136L193.616 58.8195Z" fill="#3F3D56"/>
<path d="M102.747 255.992C116.897 245.878 136.915 241.779 155.007 239.63C177.483 236.961 200.286 236.975 222.777 234.398C240.938 232.318 260.343 228.301 275.112 218.888C281.36 215.06 285.779 210.211 287.87 204.888C289.756 199.314 288.839 193.509 285.247 188.276C281.246 182.273 274.864 177.492 268.153 173.575C260.444 169.141 251.702 165.472 242.228 162.697C222.28 156.726 201.303 153.617 180.871 149.036C170.85 146.789 160.728 144.325 151.423 140.465C143.542 137.195 134.952 132.788 130.566 126.233C121.517 112.71 143.104 104.651 155.337 101.598C163.652 99.6169 172.215 98.0771 180.939 96.9941C182.784 96.7455 182.001 94.4329 180.163 94.6804C170.98 95.8047 161.981 97.4551 153.278 99.6109C145.901 101.536 138.292 104.066 132.496 108.419C129.858 110.384 127.907 112.677 126.771 115.146C125.635 117.616 125.338 120.208 125.9 122.754C127.435 129.242 134.106 134.243 140.372 137.864C148.657 142.653 158.104 145.78 167.682 148.33C177.772 151.015 188.071 153.107 198.37 155.159C218.948 159.261 240.45 162.916 259.025 171.643C272.02 177.748 289.673 189.193 285.35 203.382C283.432 209.682 277.605 214.605 271.317 218.226C263.933 222.355 255.417 225.608 246.184 227.827C205.019 238.232 159.714 230.789 119.61 244.924C112.505 247.427 101.146 253.974 101.146 253.974C101.146 253.974 100.01 257.949 102.747 255.992Z" fill="#D6D6E3"/>
<path d="M66.9242 243.257L6.58956 259.731C3.92486 260.461 1.82987 261.825 0.764196 263.524C-0.301481 265.222 -0.250815 267.117 0.905076 268.793L19.6398 295.861C20.8018 297.535 22.9733 298.851 25.678 299.52C28.3826 300.189 31.3995 300.157 34.0669 299.431L94.4015 282.957C97.0662 282.227 99.1612 280.864 100.227 279.165C101.293 277.466 101.242 275.571 100.086 273.896L81.3513 246.827C80.1893 245.154 78.0178 243.838 75.3131 243.168C72.6085 242.499 69.5916 242.531 66.9242 243.257ZM69.4222 246.866C69.783 246.768 70.162 246.7 70.5501 246.662L50.1519 270.835L8.2559 263.635C8.51679 263.519 8.79568 263.421 9.08821 263.341L69.4222 246.866ZM91.9041 279.348L31.5694 295.822C30.4263 296.133 29.1333 296.147 27.9742 295.86C26.815 295.573 25.8843 295.009 25.3864 294.292L6.81823 267.467L50.9162 275.047C51.6026 275.165 52.3326 275.133 52.986 274.956C53.6394 274.778 54.1772 274.467 54.511 274.072L75.8614 248.771L94.3382 275.466C94.8336 276.184 94.8553 276.996 94.3986 277.724C93.942 278.452 93.0442 279.037 91.9023 279.35L91.9041 279.348Z" fill="#090814"/>
<path d="M339.246 157.998C367.091 157.998 389.664 143.82 389.664 126.331C389.664 108.841 367.091 94.6628 339.246 94.6628C311.4 94.6628 288.827 108.841 288.827 126.331C288.827 143.82 311.4 157.998 339.246 157.998Z" fill="#198754"/>
<path d="M332.364 142.81C331.494 142.81 330.635 142.682 329.856 142.438C329.078 142.193 328.4 141.838 327.878 141.4L314.123 129.881C313.682 129.511 313.36 129.09 313.177 128.642C312.994 128.194 312.954 127.727 313.058 127.269C313.162 126.811 313.409 126.371 313.784 125.973C314.16 125.575 314.656 125.227 315.245 124.949C315.835 124.672 316.505 124.47 317.218 124.355C317.932 124.24 318.674 124.215 319.404 124.28C320.133 124.346 320.834 124.501 321.468 124.736C322.102 124.972 322.655 125.284 323.097 125.654L332.096 133.192L355.209 111.416C355.618 111.031 356.143 110.701 356.755 110.443C357.367 110.186 358.054 110.006 358.776 109.915C359.499 109.825 360.242 109.824 360.965 109.914C361.688 110.004 362.375 110.182 362.988 110.438C363.601 110.695 364.128 111.025 364.538 111.409C364.948 111.794 365.233 112.225 365.378 112.679C365.522 113.132 365.523 113.6 365.38 114.054C365.238 114.507 364.954 114.939 364.545 115.324L337.035 141.242C336.537 141.711 335.868 142.098 335.083 142.371C334.298 142.644 333.421 142.794 332.524 142.81L332.364 142.81Z" fill="white"/>
</svg>
