<svg width="445" height="502" viewBox="0 0 445 502" fill="none" xmlns="http://www.w3.org/2000/svg">
<g clip-path="url(#clip0_17_631)">
<path d="M314 65H291V97H314V65Z" fill="#FEB9BA"/>
<path d="M317.111 16.149C321.476 16.039 325.455 19.14 327.469 23.015C329.483 26.89 329.849 31.407 329.747 35.773C329.645 40.139 329.118 44.511 329.503 48.861C329.946 53.498 331.403 57.981 333.77 61.9926C336.138 66.0043 339.358 69.4466 343.203 72.076C340.256 72.1565 337.397 71.0647 335.254 69.04C333.144 67.0241 331.31 64.7375 329.801 62.24C328.373 60.2289 327.126 58.0944 326.077 55.862C324.782 52.4855 323.941 48.9519 323.577 45.354C322.304 36.554 321.131 27.7396 320.057 18.911" fill="#2F2E41"/>
<path d="M243.156 490.808H257.887L264.895 433.986H243.153L243.156 490.808Z" fill="#FEB9BA"/>
<path d="M293.627 490.473C294.092 491.812 294.329 493.22 294.327 494.637C294.327 495.963 293.8 497.235 292.863 498.172C291.925 499.11 290.653 499.637 289.327 499.637H243.707C242.802 499.637 241.935 499.278 241.295 498.638C240.655 497.998 240.296 497.131 240.296 496.226V494.326C240.296 494.326 238.039 488.617 242.686 481.581C242.686 481.581 248.461 487.09 257.086 478.461L259.631 473.851L278.051 487.322L288.261 488.579C290.495 488.854 292.475 488.536 293.624 490.471L293.627 490.473Z" fill="#090814"/>
<path d="M306.73 480.08L321.051 483.535L341.195 429.943L320.059 424.843L306.73 480.08Z" fill="#FEB9BA"/>
<path d="M355.871 491.6C356.008 493.011 355.906 494.435 355.571 495.812C355.26 497.101 354.449 498.213 353.318 498.905C352.187 499.596 350.827 499.81 349.538 499.499L305.19 488.799C304.311 488.587 303.552 488.034 303.08 487.262C302.609 486.49 302.463 485.562 302.675 484.683L303.121 482.837C303.121 482.837 302.267 476.758 308.434 471.009C308.434 471.009 312.755 477.72 323.168 471.356L326.723 467.472L341.468 484.889L351.098 488.506C353.205 489.297 355.205 489.453 355.867 491.606L355.871 491.6Z" fill="#090814"/>
<path d="M392.162 207.188C389.628 205.19 387.61 202.614 386.276 199.676L358.789 180.12L368.477 167.313L395.317 188.53C398.467 189.229 401.404 190.672 403.882 192.738C410.153 197.824 412.612 205.181 409.376 209.172C406.14 213.163 398.433 212.271 392.162 207.188Z" fill="#FEB9BA"/>
<path d="M387.092 178.385L385.808 181.011L379.149 194.6L377.179 198.611L357.808 181.217L342.232 167.235L305.619 134.37C303.845 132.775 302.616 130.663 302.107 128.332C301.598 126.001 301.834 123.569 302.782 121.379C303.73 119.19 305.342 117.353 307.391 116.129C309.439 114.906 311.82 114.356 314.197 114.559C320.142 115.071 332.118 116.168 344.823 117.683L349.195 130.337L347.052 141.707L341.223 139.983L346.533 144.434L387.092 178.385Z" fill="#00931B"/>
<path d="M271.276 164.968C274.099 164.985 280.019 203.222 275.605 208.976C271.984 213.696 338.348 208.976 338.348 208.976C332.109 207.707 334.916 166.856 341.62 164.968L301.577 152.7L271.276 164.968Z" fill="#FEB9BA"/>
<path d="M335.4 203.818H276.4C276.4 203.818 251.8 242.885 251.8 318.637L241.7 440.562L266.951 442.005L307.636 276.727L329.995 357.869L314.567 444.434H339.017L367.961 346.823L362.183 295.551C362.183 295.551 356.157 225.094 335.405 203.818H335.4Z" fill="#090814"/>
<path d="M349.194 130.337L347.051 141.707L346.532 144.434L342.232 167.239L336.4 175.818C336.4 175.818 294.879 162.946 275.4 178.818L259.734 128.172L276.328 92.1L289.314 84.885L291.478 76.228H318.987L323.222 84.885L335.487 90.657L344.823 117.682L349.195 130.336L349.194 130.337Z" fill="#00931B"/>
<path d="M340.841 89.158C338.823 91.6752 336.231 93.6725 333.283 94.983L313.508 122.313L300.778 112.523L322.208 85.853C322.932 82.7087 324.399 79.7834 326.485 77.322C331.621 71.092 338.998 68.692 342.962 71.96C346.926 75.228 345.977 82.928 340.841 89.16V89.158Z" fill="#FEB9BA"/>
<path d="M287.532 92.5561C287.532 92.5561 266.59 81.0421 259.79 92.5561C253.99 102.38 248.946 152.016 247.59 166.376C247.352 168.894 247.961 171.42 249.32 173.553C250.259 175.028 251.525 176.268 253.02 177.175C254.515 178.082 256.199 178.632 257.941 178.783C259.684 178.934 261.437 178.681 263.066 178.045C264.695 177.409 266.155 176.406 267.334 175.114L332.146 104.07L312 94.0001L277.459 129.98L287.533 92.5601L287.532 92.5561Z" fill="#00931B"/>
<path d="M301.903 70.723C316.446 70.723 328.236 58.9333 328.236 44.39C328.236 29.8467 316.446 18.057 301.903 18.057C287.36 18.057 275.57 29.8467 275.57 44.39C275.57 58.9333 287.36 70.723 301.903 70.723Z" fill="#FEB9BA"/>
<path d="M322.181 30.158C318.075 32.93 315.448 37.575 314.781 44.498C312.202 42.45 311.82 38.725 312.801 33.958C311.007 38.837 296.451 63.668 295.491 71.518C294.881 76.518 296.881 81.558 299.951 85.548C302.954 89.1676 306.472 92.3279 310.391 94.928C306.786 93.5894 303.498 91.5171 300.735 88.8422C297.972 86.1673 295.795 82.9479 294.341 79.388C290.221 69.108 292.671 57.668 295.911 46.898C295.151 48.328 294.061 50.938 292.801 51.958C291.181 53.268 289.261 52.858 287.961 54.488C287.226 55.5256 286.722 56.7086 286.482 57.9574C286.242 59.2062 286.272 60.4919 286.571 61.728C287.191 64.1902 288.161 66.5509 289.451 68.738C272.751 65.599 267.791 46.518 275.421 33.518C270.541 42.278 269.481 59.918 275.691 67.778C279.171 72.188 284.211 75.628 285.951 80.968C287.033 84.8071 286.629 88.9128 284.821 92.468C283.011 95.9855 280.613 99.1679 277.731 101.878C276.591 103.028 275.421 104.138 274.201 105.218C273.894 104.908 273.51 104.685 273.088 104.573C272.667 104.46 272.223 104.462 271.802 104.577C271.381 104.693 270.999 104.918 270.694 105.23C270.389 105.542 270.173 105.93 270.067 106.353C269.756 107.455 269.332 108.523 268.801 109.538C263.86 110.659 257.189 109.103 256.171 116.048C255.9 117.9 252.551 117.078 250.691 117.378C250.801 117.075 250.811 116.745 250.719 116.436C250.628 116.126 250.439 115.855 250.182 115.661C249.925 115.466 249.612 115.36 249.29 115.356C248.967 115.352 248.652 115.452 248.391 115.641C246.951 116.745 245.261 117.479 243.471 117.778C239.076 117.588 234.786 116.376 230.941 114.238C243.121 106.648 253.807 108.838 258.567 95.298C259.313 93.18 259.553 88.762 259.539 83.792C259.414 72.531 256.949 61.4191 252.3 51.162C251.773 50.0343 251.382 48.8479 251.136 47.628C249.806 39.958 251.876 29.418 255.236 24.458C256.94 21.9871 259.199 19.9488 261.831 18.506C264.463 17.0632 267.396 16.2557 270.396 16.148C273.386 16.058 275.166 17.368 277.806 15.958C280.626 14.448 281.286 16.428 283.196 13.868C286.606 9.29796 292.416 6.93796 298.116 6.73796C303.816 6.53796 307.006 4.94796 312.186 7.33796C315.456 8.84796 319.222 17.307 322.826 17.359C330.286 17.466 331.718 23.724 322.186 30.159L322.181 30.158Z" fill="#090814"/>
<path d="M311.221 95.518L310.391 94.928C310.611 95.018 310.831 95.098 311.051 95.168L311.221 95.518Z" fill="#2F2E41"/>
<path d="M439.626 202.562C437.579 200.141 435.027 198.196 432.15 196.862C429.273 195.529 426.14 194.839 422.969 194.842H397.7C394.438 194.842 391.217 195.573 388.275 196.982C385.332 198.39 382.743 200.441 380.697 202.982C378.651 205.523 377.2 208.49 376.452 211.665C375.703 214.84 375.676 218.143 376.372 221.33L381.887 246.584C380.094 251.186 379.433 256.151 379.961 261.061C380.489 265.972 382.19 270.683 384.921 274.798C387.651 278.913 391.331 282.311 395.651 284.706C399.97 287.1 404.802 288.421 409.739 288.557C414.675 288.693 419.572 287.639 424.017 285.485C428.461 283.332 432.322 280.141 435.275 276.182C438.227 272.223 440.184 267.612 440.981 262.738C441.778 257.864 441.391 252.87 439.853 248.177L444.506 220.261C445.03 217.134 444.865 213.929 444.023 210.872C443.18 207.815 441.681 204.979 439.629 202.561L439.626 202.562ZM410.58 226.971C406.321 226.967 402.107 227.848 398.207 229.559C394.307 231.27 390.805 233.774 387.924 236.911L384.15 219.631C383.708 217.606 383.725 215.509 384.201 213.492C384.676 211.475 385.598 209.59 386.898 207.976C388.198 206.362 389.843 205.06 391.712 204.166C393.582 203.271 395.628 202.807 397.7 202.808H422.97C424.984 202.808 426.973 203.246 428.8 204.093C430.627 204.94 432.248 206.174 433.549 207.711C434.851 209.247 435.802 211.049 436.337 212.99C436.872 214.931 436.977 216.966 436.646 218.952L433.587 237.3C430.702 234.048 427.159 231.446 423.193 229.665C419.227 227.885 414.928 226.966 410.581 226.97L410.58 226.971Z" fill="#090814"/>
<path d="M155.3 433.012C153.694 431.114 151.694 429.588 149.438 428.543C147.182 427.497 144.725 426.957 142.239 426.959H122.424C119.866 426.959 117.34 427.532 115.033 428.637C112.726 429.741 110.695 431.349 109.091 433.341C107.487 435.334 106.349 437.66 105.762 440.15C105.176 442.64 105.154 445.23 105.7 447.729L110.025 467.529C108.619 471.137 108.101 475.031 108.515 478.881C108.928 482.732 110.262 486.426 112.404 489.653C114.545 492.88 117.431 495.545 120.818 497.423C124.205 499.301 127.994 500.336 131.865 500.443C135.736 500.549 139.576 499.723 143.061 498.034C146.546 496.345 149.574 493.843 151.889 490.738C154.204 487.634 155.739 484.018 156.364 480.196C156.989 476.374 156.685 472.458 155.479 468.778L159.127 446.888C159.538 444.436 159.408 441.923 158.748 439.526C158.087 437.129 156.912 434.905 155.303 433.009L155.3 433.012ZM132.524 452.153C129.184 452.149 125.88 452.84 122.822 454.182C119.764 455.524 117.018 457.487 114.759 459.947L111.8 446.4C111.452 444.812 111.464 443.166 111.836 441.583C112.209 440.001 112.931 438.522 113.95 437.255C114.97 435.989 116.26 434.967 117.727 434.265C119.193 433.563 120.798 433.199 122.424 433.2H142.242C143.821 433.2 145.381 433.544 146.813 434.208C148.246 434.872 149.517 435.84 150.537 437.045C151.558 438.249 152.304 439.662 152.723 441.184C153.143 442.706 153.226 444.302 152.966 445.859L150.566 460.247C148.303 457.697 145.525 455.657 142.415 454.261C139.306 452.864 135.935 452.144 132.526 452.147L132.524 452.153Z" fill="#090814"/>
<path d="M280.377 18.814L278.467 18.222C278.644 11.7461 280.595 5.443 284.108 0L286.018 0.592L280.377 18.814Z" fill="#00931B"/>
<path d="M280.387 16.469L279.16 18.048L264.1 6.34499L265.327 4.76599C271.505 6.89046 276.803 11.0056 280.39 16.466L280.387 16.469Z" fill="#00931B"/>
<path d="M6.76883e-06 500.446C-0.000521686 500.602 0.0298978 500.757 0.0895138 500.902C0.14913 501.047 0.236764 501.178 0.347371 501.289C0.457978 501.399 0.589373 501.487 0.733989 501.546C0.878605 501.606 1.03359 501.636 1.19001 501.636H420.48C420.796 501.636 421.098 501.511 421.321 501.287C421.545 501.064 421.67 500.762 421.67 500.446C421.67 500.13 421.545 499.828 421.321 499.605C421.098 499.381 420.796 499.256 420.48 499.256H1.19001C1.03362 499.256 0.878702 499.286 0.734146 499.346C0.58959 499.405 0.458248 499.493 0.347667 499.604C0.237087 499.714 0.149447 499.846 0.0897841 499.99C0.0301212 500.135 -0.000388975 500.29 6.76883e-06 500.446Z" fill="#CCCCCC"/>
</g>
<defs>
<clipPath id="clip0_17_631">
<rect width="444.802" height="501.636" fill="white"/>
</clipPath>
</defs>
</svg>
